G04 ================== begin FILE IDENTIFICATION RECORD ==================*
G04 Layout Name:  D:/Projects/PCB/Compressor Monitor/PCBEditor/Compressor Monitor.brd*
G04 Film Name:    2_SILKSCREEN_TOP*
G04 File Format:  Gerber RS274X*
G04 File Origin:  Cadence Allegro 23.1-P001*
G04 Origin Date:  Thu Jan 25 12:23:14 2024*
G04 *
G04 Layer:  REF DES/SILKSCREEN_TOP*
G04 Layer:  PACKAGE GEOMETRY/SILKSCREEN_TOP*
G04 Layer:  DRAWING FORMAT/TITLE_DATA*
G04 Layer:  DRAWING FORMAT/TITLE_BLOCK*
G04 Layer:  DRAWING FORMAT/REVISION_DATA*
G04 Layer:  DRAWING FORMAT/REVISION_BLOCK*
G04 Layer:  DRAWING FORMAT/OUTLINE*
G04 Layer:  DRAWING FORMAT/DRAWING_ORIGIN*
G04 Layer:  DEVICE TYPE/SILKSCREEN_TOP*
G04 Layer:  COMPONENT VALUE/SILKSCREEN_TOP*
G04 Layer:  BOARD GEOMETRY/SILKSCREEN_TOP*
G04 Layer:  BOARD GEOMETRY/DESIGN_OUTLINE*
G04 *
G04 Offset:    (0.0000 0.0000)*
G04 Mirror:    No*
G04 Mode:      Positive*
G04 Rotation:  0*
G04 FullContactRelief:  No*
G04 UndefLineWidth:     0.1000*
G04 ================== end FILE IDENTIFICATION RECORD ====================*
%FSLAX25Y25*MOMM*%
%IR0*IPPOS*OFA0.00000B0.00000*MIA0B0*SFA1.00000B1.00000*%
%AMMACRO10*
1,1,.1,.635,0.0*
20,1,.1,.635,0.0,-.635,0.0,0.0*
1,1,.1,-.635,0.0*
1,1,.1,0.0,.635*
20,1,.1,0.0,.635,0.0,-.635,0.0*
1,1,.1,0.0,-.635*
%
%ADD10MACRO10*%
%ADD11C,.1*%
%ADD12C,.2*%
%ADD13C,.127*%
G75*
%LPD*%
G75*
G36*
G01X-1844000Y3448000D02*
G03I-50000J0D01*
G37*
G54D10*
X0Y0D03*
G54D11*
G01X-2340000Y2050000D02*
X-2090000D01*
Y1660000D01*
X-2340000D01*
Y2050000D01*
G01X-2140000Y1694480D02*
X-2267000D01*
G01Y1762040D02*
X-2140000D01*
G01X-2203500D02*
Y1694480D01*
G01X-2267000Y1809540D02*
X-2140000Y1832060D01*
X-2267000Y1857800D01*
X-2140000Y1883540D01*
X-2267000Y1906060D01*
G01Y1987340D02*
X-2140000D01*
G01X-2267000Y1950340D02*
Y2024340D01*
G01X-2287000Y2590000D02*
X-2160000Y2612520D01*
X-2287000Y2638260D01*
X-2160000Y2664000D01*
X-2287000Y2686520D01*
G01X-2244660Y2767800D02*
X-2160000D01*
G01X-2278530D02*
X-2280650Y2764580D01*
X-2284880D01*
X-2287000Y2767800D01*
X-2284880Y2771020D01*
X-2280650D01*
X-2278530Y2767800D01*
G01X-2160000Y2866770D02*
X-2287000D01*
Y2927910D01*
G01X-2225620Y2905380D02*
Y2866770D01*
G01X-2244660Y3026880D02*
X-2160000D01*
G01X-2278530D02*
X-2280650Y3023660D01*
X-2284880D01*
X-2287000Y3026880D01*
X-2284880Y3030100D01*
X-2280650D01*
X-2278530Y3026880D01*
G01X-2350000Y3070000D02*
X-2100000D01*
Y2560000D01*
X-2350000D01*
Y3070000D01*
G01X-1956420Y-776350D02*
X-1962770Y-786000D01*
X-1967000Y-797260D01*
Y-810130D01*
X-1960650Y-824610D01*
X-1950070Y-835870D01*
X-1937370Y-843910D01*
X-1916200Y-850350D01*
X-1897150Y-851960D01*
X-1878100Y-848740D01*
X-1865400Y-843910D01*
X-1852700Y-834260D01*
X-1844230Y-823000D01*
X-1840000Y-811740D01*
Y-800480D01*
X-1844230Y-789220D01*
X-1850580Y-779570D01*
X-1859050Y-771520D01*
G01X-1840000Y-715980D02*
X-1967000D01*
G01Y-648420D02*
X-1840000D01*
G01X-1903500D02*
Y-715980D01*
G01X-1840000Y-584830D02*
X-1967000D01*
Y-546230D01*
X-1960650Y-533360D01*
X-1945830Y-523700D01*
X-1928900Y-520490D01*
X-1911970Y-523700D01*
X-1899270Y-531750D01*
X-1892910Y-546230D01*
Y-584830D01*
G01X-1840000Y-458510D02*
X-1967000D01*
Y-426340D01*
X-1960650Y-413470D01*
X-1952180Y-403820D01*
X-1939490Y-395770D01*
X-1924660Y-389340D01*
X-1903500Y-387730D01*
X-1882330Y-389340D01*
X-1867510Y-395770D01*
X-1854810Y-403820D01*
X-1846350Y-413470D01*
X-1840000Y-426340D01*
Y-458510D01*
G01X-1714500Y-812240D02*
X-1587500D01*
G01X-1714500Y-849240D02*
Y-775240D01*
G01X-1587500Y-716480D02*
X-1714500Y-648920D01*
G01Y-716480D02*
X-1587500Y-648920D01*
G01X-1333500Y-844410D02*
X-1460500D01*
Y-804200D01*
X-1454150Y-791330D01*
X-1445680Y-783280D01*
X-1428750Y-780070D01*
X-1411820Y-783280D01*
X-1401230Y-792940D01*
X-1394880Y-804200D01*
Y-844410D01*
G01Y-804200D02*
X-1333500Y-780070D01*
G01Y-716480D02*
X-1460500Y-648920D01*
G01Y-716480D02*
X-1333500Y-648920D01*
G01X-1435830Y747690D02*
X-1448530Y757350D01*
X-1454880Y768610D01*
X-1457000Y781480D01*
X-1452770Y797560D01*
X-1442180Y808830D01*
X-1429490Y812040D01*
X-1416780Y810430D01*
X-1406200Y804000D01*
X-1385030Y771830D01*
X-1370220Y757350D01*
X-1349050Y747690D01*
X-1330000Y744480D01*
Y812040D01*
G01X-1614430Y220980D02*
X-1603850Y233850D01*
X-1597500Y248330D01*
Y261190D01*
X-1603850Y274060D01*
X-1614430Y283720D01*
X-1629250Y288540D01*
X-1644060Y285330D01*
X-1656770Y277280D01*
X-1665230Y262800D01*
X-1669470Y243500D01*
X-1677930Y232240D01*
X-1692750Y227410D01*
X-1707570Y230630D01*
X-1718150Y238670D01*
X-1724500Y249930D01*
Y261190D01*
X-1720270Y272460D01*
X-1709680Y282110D01*
G01X-1713920Y419690D02*
X-1720270Y410040D01*
X-1724500Y398780D01*
Y385910D01*
X-1718150Y371430D01*
X-1707570Y360170D01*
X-1694870Y352130D01*
X-1673700Y345690D01*
X-1654650Y344080D01*
X-1635600Y347300D01*
X-1622900Y352130D01*
X-1610200Y361780D01*
X-1601730Y373040D01*
X-1597500Y384300D01*
Y395560D01*
X-1601730Y406820D01*
X-1608080Y416470D01*
X-1616550Y424520D01*
G01X-1724500Y481670D02*
X-1597500D01*
Y546010D01*
G01X-1593270Y614420D02*
X-1724500Y672340D01*
G01X-1616550Y737530D02*
X-1605960Y747180D01*
X-1599620Y758440D01*
X-1597500Y772920D01*
X-1601730Y787400D01*
X-1610200Y798660D01*
X-1625010Y806700D01*
X-1641950Y808310D01*
X-1658880Y805090D01*
X-1669470Y797050D01*
X-1677930Y785790D01*
X-1680050Y774530D01*
X-1677930Y763270D01*
X-1669470Y748790D01*
X-1724500Y753620D01*
Y797050D01*
G01X-1868430Y220980D02*
X-1857850Y233850D01*
X-1851500Y248330D01*
Y261190D01*
X-1857850Y274060D01*
X-1868430Y283720D01*
X-1883250Y288540D01*
X-1898060Y285330D01*
X-1910770Y277280D01*
X-1919230Y262800D01*
X-1923470Y243500D01*
X-1931930Y232240D01*
X-1946750Y227410D01*
X-1961570Y230630D01*
X-1972150Y238670D01*
X-1978500Y249930D01*
Y261190D01*
X-1974270Y272460D01*
X-1963680Y282110D01*
G01X-1851500Y348910D02*
X-1978500D01*
Y381080D01*
X-1972150Y393950D01*
X-1963680Y403600D01*
X-1950990Y411650D01*
X-1936160Y418080D01*
X-1915000Y419690D01*
X-1893830Y418080D01*
X-1879010Y411650D01*
X-1866310Y403600D01*
X-1857850Y393950D01*
X-1851500Y381080D01*
Y348910D01*
G01Y473620D02*
X-1978500Y513840D01*
X-1851500Y554060D01*
G01X-1895950Y539580D02*
Y488100D01*
G01X-1847270Y614420D02*
X-1978500Y672340D01*
G01X-1851500Y792220D02*
X-1978500D01*
X-1887480Y732700D01*
Y813140D01*
G01X-1931000Y2376910D02*
X-1804000D01*
Y2336700D01*
X-1810350Y2323830D01*
X-1818820Y2315780D01*
X-1835750Y2312570D01*
X-1852680Y2315780D01*
X-1863270Y2325440D01*
X-1869620Y2336700D01*
Y2376910D01*
G01Y2336700D02*
X-1931000Y2312570D01*
G01Y2218420D02*
X-1903490Y2215200D01*
X-1880200Y2210370D01*
X-1859030Y2203940D01*
X-1835750Y2195900D01*
X-1804000Y2183030D01*
Y2247370D01*
G01X-1080000Y-811740D02*
X-1207000D01*
X-1181600Y-831040D01*
G01X-1080000D02*
Y-792440D01*
G01X-1185830Y-712770D02*
X-1198530Y-703110D01*
X-1204880Y-691850D01*
X-1207000Y-678980D01*
X-1202770Y-662900D01*
X-1192180Y-651630D01*
X-1179490Y-648420D01*
X-1166780Y-650030D01*
X-1156200Y-656460D01*
X-1135030Y-688630D01*
X-1120220Y-703110D01*
X-1099050Y-712770D01*
X-1080000Y-715980D01*
Y-648420D01*
G01X-1075770Y-581620D02*
X-1207000Y-523700D01*
G01X-1080000Y-464950D02*
X-1207000D01*
X-1101170Y-423120D01*
X-1207000Y-381290D01*
X-1080000D01*
G01X-1207000Y-312880D02*
Y-274280D01*
G01Y-293580D02*
X-1080000D01*
G01Y-312880D02*
Y-274280D01*
G01X-1096930Y-197820D02*
X-1086350Y-184950D01*
X-1080000Y-170470D01*
Y-157610D01*
X-1086350Y-144740D01*
X-1096930Y-135080D01*
X-1111750Y-130260D01*
X-1126560Y-133470D01*
X-1139270Y-141520D01*
X-1147730Y-156000D01*
X-1151970Y-175300D01*
X-1160430Y-186560D01*
X-1175250Y-191390D01*
X-1190070Y-188170D01*
X-1200650Y-180130D01*
X-1207000Y-168870D01*
Y-157610D01*
X-1202770Y-146340D01*
X-1192180Y-136690D01*
G01X-1080000Y-34500D02*
X-1082120Y-47370D01*
X-1090580Y-58630D01*
X-1103280Y-68280D01*
X-1118100Y-74720D01*
X-1135030Y-77940D01*
X-1151970D01*
X-1168900Y-74720D01*
X-1183720Y-68280D01*
X-1196420Y-58630D01*
X-1204880Y-47370D01*
X-1207000Y-34500D01*
X-1204880Y-21630D01*
X-1196420Y-10370D01*
X-1183720Y-720D01*
X-1168900Y5720D01*
X-1151970Y8940D01*
X-1135030D01*
X-1118100Y5720D01*
X-1103280Y-720D01*
X-1090580Y-10370D01*
X-1082120Y-21630D01*
X-1080000Y-34500D01*
G01X-840000Y-801740D02*
X-967000D01*
X-941600Y-821040D01*
G01X-840000D02*
Y-782440D01*
G01X-865400Y-707590D02*
X-850580Y-697940D01*
X-842120Y-685070D01*
X-840000Y-670590D01*
X-842120Y-657720D01*
X-852700Y-644850D01*
X-865400Y-636810D01*
X-878100Y-635200D01*
X-892910Y-638420D01*
X-903500Y-649680D01*
X-907730Y-660940D01*
Y-675420D01*
G01Y-660940D02*
X-914080Y-651290D01*
X-924660Y-643240D01*
X-937370Y-640030D01*
X-950070Y-643240D01*
X-960650Y-651290D01*
X-967000Y-665770D01*
X-964880Y-680240D01*
X-956420Y-694720D01*
G01X-835770Y-571620D02*
X-967000Y-513700D01*
G01X-840000Y-454950D02*
X-967000D01*
X-861170Y-413120D01*
X-967000Y-371290D01*
X-840000D01*
G01Y-283580D02*
X-842120Y-296450D01*
X-850580Y-307710D01*
X-863280Y-317360D01*
X-878100Y-323800D01*
X-895030Y-327020D01*
X-911970D01*
X-928900Y-323800D01*
X-943720Y-317360D01*
X-956420Y-307710D01*
X-964880Y-296450D01*
X-967000Y-283580D01*
X-964880Y-270710D01*
X-956420Y-259450D01*
X-943720Y-249800D01*
X-928900Y-243360D01*
X-911970Y-240140D01*
X-895030D01*
X-878100Y-243360D01*
X-863280Y-249800D01*
X-850580Y-259450D01*
X-842120Y-270710D01*
X-840000Y-283580D01*
G01X-856930Y-187820D02*
X-846350Y-174950D01*
X-840000Y-160470D01*
Y-147610D01*
X-846350Y-134740D01*
X-856930Y-125080D01*
X-871750Y-120260D01*
X-886560Y-123470D01*
X-899270Y-131520D01*
X-907730Y-146000D01*
X-911970Y-165300D01*
X-920430Y-176560D01*
X-935250Y-181390D01*
X-950070Y-178170D01*
X-960650Y-170130D01*
X-967000Y-158870D01*
Y-147610D01*
X-962770Y-136340D01*
X-952180Y-126690D01*
G01X-967000Y-43800D02*
Y-5200D01*
G01Y-24500D02*
X-840000D01*
G01Y-43800D02*
Y-5200D01*
G01X-580000Y-801740D02*
X-707000D01*
X-681600Y-821040D01*
G01X-580000D02*
Y-782440D01*
G01Y-652900D02*
X-707000D01*
X-615980Y-712420D01*
Y-631980D01*
G01X-575770Y-571620D02*
X-707000Y-513700D01*
G01X-596930Y-446900D02*
X-586350Y-434030D01*
X-580000Y-419550D01*
Y-406690D01*
X-586350Y-393820D01*
X-596930Y-384160D01*
X-611750Y-379340D01*
X-626560Y-382550D01*
X-639270Y-390600D01*
X-647730Y-405080D01*
X-651970Y-424380D01*
X-660430Y-435640D01*
X-675250Y-440470D01*
X-690070Y-437250D01*
X-700650Y-429210D01*
X-707000Y-417950D01*
Y-406690D01*
X-702770Y-395420D01*
X-692180Y-385770D01*
G01X-696420Y-248190D02*
X-702770Y-257840D01*
X-707000Y-269100D01*
Y-281970D01*
X-700650Y-296450D01*
X-690070Y-307710D01*
X-677370Y-315750D01*
X-656200Y-322190D01*
X-637150Y-323800D01*
X-618100Y-320580D01*
X-605400Y-315750D01*
X-592700Y-306100D01*
X-584230Y-294840D01*
X-580000Y-283580D01*
Y-272320D01*
X-584230Y-261060D01*
X-590580Y-251410D01*
X-599050Y-243360D01*
G01X-580000Y-189430D02*
X-707000D01*
G01Y-128300D02*
X-628680Y-189430D01*
G01X-580000Y-118650D02*
X-664660Y-162080D01*
G01X-581500Y664760D02*
X-708500D01*
X-683100Y645460D01*
G01X-581500D02*
Y684060D01*
G01X-600550Y758910D02*
X-589960Y768560D01*
X-583620Y779820D01*
X-581500Y794300D01*
X-585730Y808780D01*
X-594200Y820040D01*
X-609010Y828080D01*
X-625950Y829690D01*
X-642880Y826470D01*
X-653470Y818430D01*
X-661930Y807170D01*
X-664050Y795910D01*
X-661930Y784650D01*
X-653470Y770170D01*
X-708500Y775000D01*
Y818430D01*
G01X-957000Y788260D02*
X-952770Y775390D01*
X-942180Y765740D01*
X-929490Y759300D01*
X-912550Y754480D01*
X-893500Y752870D01*
X-874450Y754480D01*
X-857510Y759300D01*
X-844810Y765740D01*
X-834230Y775390D01*
X-830000Y788260D01*
X-834230Y801130D01*
X-844810Y810780D01*
X-857510Y817220D01*
X-874450Y822040D01*
X-893500Y823650D01*
X-912550Y822040D01*
X-929490Y817220D01*
X-942180Y810780D01*
X-952770Y801130D01*
X-957000Y788260D01*
G01X-1089500Y664760D02*
X-1216500D01*
X-1191100Y645460D01*
G01X-1089500D02*
Y684060D01*
G01X-1142410Y763730D02*
X-1157230Y775000D01*
X-1165700Y784650D01*
X-1169930Y797520D01*
X-1165700Y808780D01*
X-1157230Y816820D01*
X-1144530Y823260D01*
X-1129720Y824870D01*
X-1117010Y823260D01*
X-1104310Y816820D01*
X-1093730Y807170D01*
X-1089500Y795910D01*
X-1093730Y783040D01*
X-1106430Y771780D01*
X-1125480Y765340D01*
X-1146650Y763730D01*
X-1174160Y766950D01*
X-1188990Y771780D01*
X-1203800Y779820D01*
X-1214380Y791080D01*
X-1216500Y802340D01*
X-1212270Y813600D01*
X-1201680Y821650D01*
G01X-1186910Y1619000D02*
Y1746000D01*
X-1146700D01*
X-1133830Y1739650D01*
X-1125780Y1731180D01*
X-1122570Y1714250D01*
X-1125780Y1697320D01*
X-1135440Y1686730D01*
X-1146700Y1680380D01*
X-1186910D01*
G01X-1146700D02*
X-1122570Y1619000D01*
G01X-1025200D02*
X-1013940Y1621120D01*
X-1001070Y1627460D01*
X-993030Y1638050D01*
X-989810Y1652870D01*
X-993030Y1667680D01*
X-1002680Y1680380D01*
X-1017160Y1686730D01*
X-1033240D01*
X-1042900Y1690970D01*
X-1050940Y1701550D01*
X-1054160Y1716370D01*
X-1049330Y1731180D01*
X-1038070Y1741770D01*
X-1025200Y1746000D01*
X-1012330Y1741770D01*
X-1001070Y1731180D01*
X-996240Y1716370D01*
X-999460Y1701550D01*
X-1007500Y1690970D01*
X-1017160Y1686730D01*
X-1033240D01*
X-1047720Y1680380D01*
X-1057370Y1667680D01*
X-1060590Y1652870D01*
X-1057370Y1638050D01*
X-1049330Y1627460D01*
X-1036460Y1621120D01*
X-1025200Y1619000D01*
G01X-768910Y2087000D02*
Y2214000D01*
X-728700D01*
X-715830Y2207650D01*
X-707780Y2199180D01*
X-704570Y2182250D01*
X-707780Y2165320D01*
X-717440Y2154730D01*
X-728700Y2148380D01*
X-768910D01*
G01X-728700D02*
X-704570Y2087000D01*
G01X-642590Y2106050D02*
X-632940Y2095460D01*
X-621680Y2089120D01*
X-607200Y2087000D01*
X-592720Y2091230D01*
X-581460Y2099700D01*
X-573420Y2114510D01*
X-571810Y2131450D01*
X-575030Y2148380D01*
X-583070Y2158970D01*
X-594330Y2167430D01*
X-605590Y2169550D01*
X-616850Y2167430D01*
X-631330Y2158970D01*
X-626500Y2214000D01*
X-583070D01*
G01X-745910Y2921000D02*
Y3048000D01*
X-705700D01*
X-692830Y3041650D01*
X-684780Y3033180D01*
X-681570Y3016250D01*
X-684780Y2999320D01*
X-694440Y2988730D01*
X-705700Y2982380D01*
X-745910D01*
G01X-705700D02*
X-681570Y2921000D01*
G01X-619590Y2946400D02*
X-609940Y2931580D01*
X-597070Y2923120D01*
X-582590Y2921000D01*
X-569720Y2923120D01*
X-556850Y2933700D01*
X-548810Y2946400D01*
X-547200Y2959100D01*
X-550420Y2973910D01*
X-561680Y2984500D01*
X-572940Y2988730D01*
X-587420D01*
G01X-572940D02*
X-563290Y2995080D01*
X-555240Y3005660D01*
X-552030Y3018370D01*
X-555240Y3031070D01*
X-563290Y3041650D01*
X-577770Y3048000D01*
X-592240Y3045880D01*
X-606720Y3037420D01*
G01X-297500Y-829240D02*
X-424500D01*
X-297500Y-755240D01*
X-424500D01*
G01X-413920Y-627310D02*
X-420270Y-636960D01*
X-424500Y-648220D01*
Y-661090D01*
X-418150Y-675570D01*
X-407570Y-686830D01*
X-394870Y-694870D01*
X-373700Y-701310D01*
X-354650Y-702920D01*
X-335600Y-699700D01*
X-322900Y-694870D01*
X-310200Y-685220D01*
X-301730Y-673960D01*
X-297500Y-662700D01*
Y-651440D01*
X-301730Y-640180D01*
X-308080Y-630530D01*
X-316550Y-622480D01*
G01X-43500Y-829240D02*
X-170500D01*
X-43500Y-755240D01*
X-170500D01*
G01X-159920Y-627310D02*
X-166270Y-636960D01*
X-170500Y-648220D01*
Y-661090D01*
X-164150Y-675570D01*
X-153570Y-686830D01*
X-140870Y-694870D01*
X-119700Y-701310D01*
X-100650Y-702920D01*
X-81600Y-699700D01*
X-68900Y-694870D01*
X-56200Y-685220D01*
X-47730Y-673960D01*
X-43500Y-662700D01*
Y-651440D01*
X-47730Y-640180D01*
X-54080Y-630530D01*
X-62550Y-622480D01*
G01X210500Y-829240D02*
X83500D01*
X210500Y-755240D01*
X83500D01*
G01X94080Y-627310D02*
X87730Y-636960D01*
X83500Y-648220D01*
Y-661090D01*
X89850Y-675570D01*
X100430Y-686830D01*
X113130Y-694870D01*
X134300Y-701310D01*
X153350Y-702920D01*
X172400Y-699700D01*
X185100Y-694870D01*
X197800Y-685220D01*
X206270Y-673960D01*
X210500Y-662700D01*
Y-651440D01*
X206270Y-640180D01*
X199920Y-630530D01*
X191450Y-622480D01*
G01X80430Y20000D02*
X16090D01*
Y147000D01*
X80430D01*
G01X54690Y85620D02*
X16090D01*
G01X144020Y36930D02*
X156890Y26350D01*
X171370Y20000D01*
X184230D01*
X197100Y26350D01*
X206760Y36930D01*
X211580Y51750D01*
X208370Y66560D01*
X200320Y79270D01*
X185840Y87730D01*
X166540Y91970D01*
X155280Y100430D01*
X150450Y115250D01*
X153670Y130070D01*
X161710Y140650D01*
X172970Y147000D01*
X184230D01*
X195500Y142770D01*
X205150Y132180D01*
G01X275170Y20000D02*
Y147000D01*
X313770D01*
X326640Y140650D01*
X336300Y125830D01*
X339510Y108900D01*
X336300Y91970D01*
X328250Y79270D01*
X313770Y72910D01*
X275170D01*
G01X436880Y20000D02*
X448140Y22120D01*
X461010Y28460D01*
X469050Y39050D01*
X472270Y53870D01*
X469050Y68680D01*
X459400Y81380D01*
X444920Y87730D01*
X428840D01*
X419180Y91970D01*
X411140Y102550D01*
X407920Y117370D01*
X412750Y132180D01*
X424010Y142770D01*
X436880Y147000D01*
X449750Y142770D01*
X461010Y132180D01*
X465840Y117370D01*
X462620Y102550D01*
X454580Y91970D01*
X444920Y87730D01*
X428840D01*
X414360Y81380D01*
X404710Y68680D01*
X401490Y53870D01*
X404710Y39050D01*
X412750Y28460D01*
X425620Y22120D01*
X436880Y20000D01*
G01X535850Y125830D02*
X545510Y138530D01*
X556770Y144880D01*
X569640Y147000D01*
X585720Y142770D01*
X596990Y132180D01*
X600200Y119490D01*
X598590Y106780D01*
X592160Y96200D01*
X559990Y75030D01*
X545510Y60220D01*
X535850Y39050D01*
X532640Y20000D01*
X600200D01*
G01X665390Y72910D02*
X676660Y87730D01*
X686310Y96200D01*
X699180Y100430D01*
X710440Y96200D01*
X718480Y87730D01*
X724920Y75030D01*
X726530Y60220D01*
X724920Y47510D01*
X718480Y34810D01*
X708830Y24230D01*
X697570Y20000D01*
X684700Y24230D01*
X673440Y36930D01*
X667000Y55980D01*
X665390Y77150D01*
X668610Y104660D01*
X673440Y119490D01*
X681480Y134300D01*
X692740Y144880D01*
X704000Y147000D01*
X715260Y142770D01*
X723310Y132180D01*
G01X794930Y72910D02*
X806200Y87730D01*
X815850Y96200D01*
X828720Y100430D01*
X839980Y96200D01*
X848020Y87730D01*
X854460Y75030D01*
X856070Y60220D01*
X854460Y47510D01*
X848020Y34810D01*
X838370Y24230D01*
X827110Y20000D01*
X814240Y24230D01*
X802980Y36930D01*
X796540Y55980D01*
X794930Y77150D01*
X798150Y104660D01*
X802980Y119490D01*
X811020Y134300D01*
X822280Y144880D01*
X833540Y147000D01*
X844800Y142770D01*
X852850Y132180D01*
G01X17690Y-190000D02*
Y-63000D01*
X78830D01*
G01X56300Y-124380D02*
X17690D01*
G01X209970Y-190000D02*
X145630D01*
Y-63000D01*
X209970D01*
G01X184230Y-124380D02*
X145630D01*
G01X267120Y-190000D02*
X307340Y-63000D01*
X347560Y-190000D01*
G01X333080Y-145550D02*
X281600D01*
G01X436880Y-63000D02*
Y-190000D01*
G01X399880Y-63000D02*
X473880D01*
G01X532640Y-190000D02*
Y-63000D01*
G01X600200D02*
Y-190000D01*
G01Y-126500D02*
X532640D01*
G01X728130Y-190000D02*
X663790D01*
Y-63000D01*
X728130D01*
G01X702390Y-124380D02*
X663790D01*
G01X793330Y-190000D02*
Y-63000D01*
X833540D01*
X846410Y-69350D01*
X854460Y-77820D01*
X857670Y-94750D01*
X854460Y-111680D01*
X844800Y-122270D01*
X833540Y-128620D01*
X793330D01*
G01X833540D02*
X857670Y-190000D01*
G01X1050800D02*
Y-63000D01*
G01X1118360D02*
Y-190000D01*
G01Y-126500D02*
X1050800D01*
G01X1178730Y-63000D02*
Y-154020D01*
X1185160Y-173070D01*
X1198030Y-185770D01*
X1214120Y-190000D01*
X1230210Y-185770D01*
X1243080Y-173070D01*
X1249510Y-154020D01*
Y-63000D01*
G01X1313090D02*
X1374230D01*
X1313090Y-190000D01*
X1374230D01*
G01X1442630Y-63000D02*
X1503770D01*
X1442630Y-190000D01*
X1503770D01*
G01X1562520D02*
X1602740Y-63000D01*
X1642960Y-190000D01*
G01X1628480Y-145550D02*
X1577000D01*
G01X1698500Y-190000D02*
Y-63000D01*
G01X1766060D02*
Y-190000D01*
G01Y-126500D02*
X1698500D01*
G01X190000Y668260D02*
X63000D01*
X88400Y648960D01*
G01X190000D02*
Y687560D01*
G01Y817100D02*
X63000D01*
X154020Y757580D01*
Y838020D01*
G01X-73500Y664760D02*
X-200500D01*
X-175100Y645460D01*
G01X-73500D02*
Y684060D01*
G01X-179330Y763730D02*
X-192030Y773390D01*
X-198380Y784650D01*
X-200500Y797520D01*
X-196270Y813600D01*
X-185680Y824870D01*
X-172990Y828080D01*
X-160280Y826470D01*
X-149700Y820040D01*
X-128530Y787870D01*
X-113720Y773390D01*
X-92550Y763730D01*
X-73500Y760520D01*
Y828080D01*
G01X-327500Y664760D02*
X-454500D01*
X-429100Y645460D01*
G01X-327500D02*
Y684060D01*
G01X-352900Y758910D02*
X-338080Y768560D01*
X-329620Y781430D01*
X-327500Y795910D01*
X-329620Y808780D01*
X-340200Y821650D01*
X-352900Y829690D01*
X-365600Y831300D01*
X-380410Y828080D01*
X-391000Y816820D01*
X-395230Y805560D01*
Y791080D01*
G01Y805560D02*
X-401580Y815210D01*
X-412160Y823260D01*
X-424870Y826470D01*
X-437570Y823260D01*
X-448150Y815210D01*
X-454500Y800730D01*
X-452380Y786260D01*
X-443920Y771780D01*
G01X-356910Y2087500D02*
Y2214500D01*
X-316700D01*
X-303830Y2208150D01*
X-295780Y2199680D01*
X-292570Y2182750D01*
X-295780Y2165820D01*
X-305440Y2155230D01*
X-316700Y2148880D01*
X-356910D01*
G01X-316700D02*
X-292570Y2087500D01*
G01X-225770Y2140410D02*
X-214500Y2155230D01*
X-204850Y2163700D01*
X-191980Y2167930D01*
X-180720Y2163700D01*
X-172680Y2155230D01*
X-166240Y2142530D01*
X-164630Y2127720D01*
X-166240Y2115010D01*
X-172680Y2102310D01*
X-182330Y2091730D01*
X-193590Y2087500D01*
X-206460Y2091730D01*
X-217720Y2104430D01*
X-224160Y2123480D01*
X-225770Y2144650D01*
X-222550Y2172160D01*
X-217720Y2186990D01*
X-209680Y2201800D01*
X-198420Y2212380D01*
X-187160Y2214500D01*
X-175900Y2210270D01*
X-167850Y2199680D01*
G01X123090Y2917500D02*
Y3044500D01*
X163300D01*
X176170Y3038150D01*
X184220Y3029680D01*
X187430Y3012750D01*
X184220Y2995820D01*
X174560Y2985230D01*
X163300Y2978880D01*
X123090D01*
G01X163300D02*
X187430Y2917500D01*
G01X254230Y3023330D02*
X263890Y3036030D01*
X275150Y3042380D01*
X288020Y3044500D01*
X304100Y3040270D01*
X315370Y3029680D01*
X318580Y3016990D01*
X316970Y3004280D01*
X310540Y2993700D01*
X278370Y2972530D01*
X263890Y2957720D01*
X254230Y2936550D01*
X251020Y2917500D01*
X318580D01*
G01X-364910Y2921000D02*
Y3048000D01*
X-324700D01*
X-311830Y3041650D01*
X-303780Y3033180D01*
X-300570Y3016250D01*
X-303780Y2999320D01*
X-313440Y2988730D01*
X-324700Y2982380D01*
X-364910D01*
G01X-324700D02*
X-300570Y2921000D01*
G01X-183900D02*
Y3048000D01*
X-243420Y2956980D01*
X-162980D01*
G01X464500Y-829240D02*
X337500D01*
X464500Y-755240D01*
X337500D01*
G01X348080Y-627310D02*
X341730Y-636960D01*
X337500Y-648220D01*
Y-661090D01*
X343850Y-675570D01*
X354430Y-686830D01*
X367130Y-694870D01*
X388300Y-701310D01*
X407350Y-702920D01*
X426400Y-699700D01*
X439100Y-694870D01*
X451800Y-685220D01*
X460270Y-673960D01*
X464500Y-662700D01*
Y-651440D01*
X460270Y-640180D01*
X453920Y-630530D01*
X445450Y-622480D01*
G01X718500Y-829240D02*
X591500D01*
X718500Y-755240D01*
X591500D01*
G01X602080Y-627310D02*
X595730Y-636960D01*
X591500Y-648220D01*
Y-661090D01*
X597850Y-675570D01*
X608430Y-686830D01*
X621130Y-694870D01*
X642300Y-701310D01*
X661350Y-702920D01*
X680400Y-699700D01*
X693100Y-694870D01*
X705800Y-685220D01*
X714270Y-673960D01*
X718500Y-662700D01*
Y-651440D01*
X714270Y-640180D01*
X707920Y-630530D01*
X699450Y-622480D01*
G01X940000Y-831960D02*
X813000Y-791740D01*
X940000Y-751520D01*
G01X895550Y-766000D02*
Y-817480D01*
G01X940000Y-697590D02*
X813000D01*
Y-665420D01*
X819350Y-652550D01*
X827820Y-642900D01*
X840510Y-634850D01*
X855340Y-628420D01*
X876500Y-626810D01*
X897670Y-628420D01*
X912490Y-634850D01*
X925190Y-642900D01*
X933650Y-652550D01*
X940000Y-665420D01*
Y-697590D01*
G01X823580Y-497270D02*
X817230Y-506920D01*
X813000Y-518180D01*
Y-531050D01*
X819350Y-545530D01*
X829930Y-556790D01*
X842630Y-564830D01*
X863800Y-571270D01*
X882850Y-572880D01*
X901900Y-569660D01*
X914600Y-564830D01*
X927300Y-555180D01*
X935770Y-543920D01*
X940000Y-532660D01*
Y-521400D01*
X935770Y-510140D01*
X929420Y-500490D01*
X920950Y-492440D01*
G01X904770Y547630D02*
X898420Y554060D01*
X887840Y558890D01*
X873010Y562110D01*
X860320Y558890D01*
X851850Y552460D01*
X845500Y541190D01*
Y497760D01*
X972500D01*
Y550850D01*
X964040Y562110D01*
X951330Y568540D01*
X936520Y571760D01*
X921700Y568540D01*
X909000Y558890D01*
X904770Y547630D01*
Y497760D01*
G01X972500Y624080D02*
X845500Y664300D01*
X972500Y704520D01*
G01X928050Y690040D02*
Y638560D01*
G01X845500Y793840D02*
X972500D01*
G01X845500Y756840D02*
Y830840D01*
G01X680000Y670430D02*
Y606090D01*
X553000D01*
Y670430D01*
G01X614380Y644690D02*
Y606090D01*
G01X680000Y730800D02*
X553000D01*
X680000Y804800D01*
X553000D01*
G01X337500Y499370D02*
X428520D01*
X447570Y505800D01*
X460270Y518670D01*
X464500Y534760D01*
X460270Y550850D01*
X447570Y563720D01*
X428520Y570150D01*
X337500D01*
G01X447570Y630520D02*
X458150Y643390D01*
X464500Y657870D01*
Y670730D01*
X458150Y683600D01*
X447570Y693260D01*
X432750Y698080D01*
X417940Y694870D01*
X405230Y686820D01*
X396770Y672340D01*
X392530Y653040D01*
X384070Y641780D01*
X369250Y636950D01*
X354430Y640170D01*
X343850Y648210D01*
X337500Y659470D01*
Y670730D01*
X341730Y682000D01*
X352320Y691650D01*
G01X396770Y806710D02*
X390420Y813140D01*
X379840Y817970D01*
X365010Y821190D01*
X352320Y817970D01*
X343850Y811540D01*
X337500Y800270D01*
Y756840D01*
X464500D01*
Y809930D01*
X456040Y821190D01*
X443330Y827620D01*
X428520Y830840D01*
X413700Y827620D01*
X401000Y817970D01*
X396770Y806710D01*
Y756840D01*
G01X304740Y1620000D02*
Y1683500D01*
X335900Y1620000D01*
Y1683500D01*
G01X376200Y1620000D02*
Y1648570D01*
X362650Y1683500D01*
G01X389750D02*
X376200Y1648570D01*
G01X417180Y1683500D02*
Y1637990D01*
X419890Y1628460D01*
X425310Y1622120D01*
X432080Y1620000D01*
X438850Y1622120D01*
X444270Y1628460D01*
X446980Y1637990D01*
Y1683500D01*
G01X528260Y1620000D02*
Y1683500D01*
X559420Y1620000D01*
Y1683500D01*
G01X582790Y1620000D02*
X599720Y1683500D01*
X616650Y1620000D01*
G01X610560Y1642220D02*
X588880D01*
G01X640020Y1620000D02*
Y1683500D01*
X671180Y1620000D01*
Y1683500D01*
G01X711480Y1620000D02*
X706060Y1621060D01*
X701320Y1625290D01*
X697260Y1631640D01*
X694550Y1639050D01*
X693190Y1647520D01*
Y1655980D01*
X694550Y1664450D01*
X697260Y1671860D01*
X701320Y1678210D01*
X706060Y1682440D01*
X711480Y1683500D01*
X716900Y1682440D01*
X721640Y1678210D01*
X725700Y1671860D01*
X728410Y1664450D01*
X729770Y1655980D01*
Y1647520D01*
X728410Y1639050D01*
X725700Y1631640D01*
X721640Y1625290D01*
X716900Y1621060D01*
X711480Y1620000D01*
G01X216800Y1722600D02*
Y1560000D01*
X789600D01*
Y1722600D01*
G01X1031500Y2265090D02*
X904500D01*
Y2305300D01*
X910850Y2318170D01*
X919320Y2326220D01*
X936250Y2329430D01*
X953180Y2326220D01*
X963770Y2316560D01*
X970120Y2305300D01*
Y2265090D01*
G01Y2305300D02*
X1031500Y2329430D01*
G01Y2426800D02*
X904500D01*
X929900Y2407500D01*
G01X1031500D02*
Y2446100D01*
G01X904500Y2556340D02*
X908730Y2543470D01*
X919320Y2533820D01*
X932010Y2527380D01*
X948950Y2522560D01*
X968000Y2520950D01*
X987050Y2522560D01*
X1003990Y2527380D01*
X1016690Y2533820D01*
X1027270Y2543470D01*
X1031500Y2556340D01*
X1027270Y2569210D01*
X1016690Y2578860D01*
X1003990Y2585300D01*
X987050Y2590120D01*
X968000Y2591730D01*
X948950Y2590120D01*
X932010Y2585300D01*
X919320Y2578860D01*
X908730Y2569210D01*
X904500Y2556340D01*
G01X216800Y2006800D02*
Y1722600D01*
X789600D01*
Y2290900D01*
X216800D01*
Y2006800D01*
G01X528300Y2193300D02*
G02X532200Y2183500I-48795J-25094D01*
G02X537300Y2164800I-524414J-153068D01*
G02X541800Y2145900I-551604J-141320D01*
G02X542800Y2136000I-45345J-9581D01*
G02X542200Y2131900I-13500J-118D01*
G02X540300Y2127800I-16219J5026D01*
G02X536600Y2123200I-28482J19121D01*
G02X530200Y2116500I-139688J127027D01*
G03X518000Y2103500I136465J-140291D01*
G03X507100Y2089400I147709J-125449D01*
G03X498400Y2075600I136832J-95906D01*
G03X492900Y2063500I65180J-36927D01*
G03X489700Y2050900I65115J-23244D01*
G03X488700Y2037000I91567J-13574D01*
G03X489800Y2023000I93691J318D01*
G03X492900Y2010200I71949J10650D01*
G02X494500Y2005400I-158343J-55448D01*
G02X495700Y2001200I-88313J-27504D01*
G02X496600Y1997700I-145706J-39333D01*
G02X496400Y1997000I-728J-170D01*
G02X493700Y1996600I-1604J1515D01*
G02X481500Y2004300I263550J431088D01*
G02X469600Y2012600I124438J191092D01*
G02X461200Y2019800I46301J62517D01*
G02X452400Y2030100I59518J59759D01*
G02X446600Y2040500I41933J30203D01*
G02X443400Y2051800I46265J19205D01*
G02X442400Y2064800I73960J12228D01*
G02X444400Y2079600I60983J-706D01*
G02X450100Y2095500I95242J-25172D01*
G02X459200Y2111800I109345J-50355D01*
G02X471400Y2127900I136336J-90638D01*
G03X490100Y2150100I-1418193J1213580D01*
G03X502900Y2166200I-382441J317190D01*
G03X511900Y2178700I-215606J164726D01*
G03X517500Y2188400I-66803J45033D01*
G02X519800Y2193000I304436J-149343D01*
G02X521800Y2196900I159921J-79548D01*
G02X523700Y2200200I494619J-282584D01*
G02X524000Y2200400I319J-154D01*
G02X524300Y2200200I-31J-371D01*
G02X525500Y2198300I-108806J-70049D01*
G02X526800Y2196000I-57242J-33872D01*
G02X528300Y2193300I-106525J-60947D01*
G01X586500Y2154500D02*
G02X592000Y2136200I-147843J-54410D01*
G02X594800Y2118700I-115121J-27393D01*
G02Y2103800I-89224J-7450D01*
G02X591500Y2094600I-18703J1517D01*
G02X589100Y2092100I-8979J6218D01*
G02X583600Y2088300I-76215J104430D01*
G02X576900Y2084100I-78437J117682D01*
G02X569600Y2080000I-89840J151411D01*
G03X554300Y2070700I70262J-132828D01*
G03X539600Y2059300I99961J-144075D01*
G03X527200Y2047400I101182J-117844D01*
G03X519100Y2036400I46045J-42388D01*
G03X516700Y2031800I37405J-22442D01*
G03X514200Y2025600I111781J-48677D01*
G03X511900Y2018900I122693J-45863D01*
G03X510200Y2012800I82706J-26336D01*
G02X508900Y2007200I-305348J67934D01*
G02X507600Y2002300I-180376J45232D01*
G02X506400Y1998300I-297081J86944D01*
G02X505900Y1997400I-2023J535D01*
G02X505400Y1997500I-216J221D01*
G02X503700Y2001400I149717J67582D01*
G02X501900Y2006400I102764J39819D01*
G02X499800Y2012400I218041J79682D01*
G02X497300Y2021100I133938J43197D01*
G02X496000Y2028300I60205J14588D01*
G02X495500Y2035300I56463J7551D01*
G02X495800Y2043600I107252J279D01*
G02X500000Y2063600I74148J-5130D01*
G02X509600Y2082300I78179J-28321D01*
G02X526600Y2102800I122596J-84366D01*
G02X554600Y2129400I444634J-439999D01*
G03X559200Y2133900I-40461J45961D01*
G03X564200Y2139800I-93342J84172D01*
G03X568800Y2145900I-96960J77902D01*
G03X572300Y2151500I-53946J37610D01*
G02X575200Y2156300I124651J-72034D01*
G02X577900Y2160400I70646J-43584D01*
G02X580300Y2163700I89214J-62360D01*
G02X581200Y2164200I954J-657D01*
G02X582100Y2163700I-11J-1081D01*
G02X583500Y2161300I-31361J-19902D01*
G02X585000Y2158200I-33810J-18272D01*
G02X586500Y2154500I-61345J-27024D01*
G01X451300Y2121900D02*
G02X451700Y2118000I-17970J-3814D01*
G02X451100Y2114100I-17691J726D01*
G02X449600Y2110000I-22865J6041D01*
G02X447000Y2104900I-57902J26306D01*
G03X435900Y2075700I82732J-48159D01*
G03X436700Y2047600I62389J-12285D01*
G03X449500Y2022100I64169J16248D01*
G03X473500Y2000200I84596J68608D01*
G01X482300Y1994300D01*
X472400Y1994400D01*
G02X460900Y1995300I341J78276D01*
G02X448400Y1997900I17961J117700D01*
G02X436400Y2001700I29105J112758D01*
G02X426500Y2006500I24320J62769D01*
G02X414100Y2016200I29866J50955D01*
G02X405100Y2028600I37896J36971D01*
G02X399700Y2043600I51443J26992D01*
G02X397900Y2061100I83077J17388D01*
G02X398800Y2074500I99173J69D01*
G02X401600Y2086100I62507J-8950D01*
G02X406700Y2098000I72492J-24025D01*
G02X415100Y2112100I170775J-92186D01*
G03X421900Y2122900I-257988J169978D01*
G03X427200Y2132500I-144407J85987D01*
G03X431500Y2141800I-128684J65143D01*
G03X435400Y2151700I-151302J65322D01*
G02X436500Y2153000I2177J-727D01*
G02X437900Y2152800I570J-1007D01*
G02X439800Y2149900I-10332J-8841D01*
G02X443500Y2142600I-268852J-140855D01*
G02X446100Y2136900I-128431J-62026D01*
G02X448500Y2130900I-145379J-61631D01*
G02X450400Y2125600I-128087J-48909D01*
G02X451300Y2121900I-26869J-8495D01*
G01X628000Y2102600D02*
G02X621800Y2068800I-192872J17910D01*
G02X610000Y2040600I-117788J32718D01*
G02X592900Y2018600I-86469J49564D01*
G02X570900Y2003100I-60305J62231D01*
G02X562300Y1999300I-51833J105676D01*
G02X555100Y1997100I-18029J46123D01*
G02X546900Y1995700I-14876J62419D01*
G02X534800Y1994800I-26781J278267D01*
G01X513200Y1993700D01*
X514700Y2000300D01*
G02X523400Y2025700I142749J-34704D01*
G02X535600Y2045200I73827J-32623D01*
G02X554000Y2061900I74224J-63294D01*
G02X581600Y2078900I158341J-226167D01*
G03X591500Y2084600I-84178J157651D01*
G03X599700Y2090300I-55570J88692D01*
G03X607100Y2096500I-58472J77305D01*
G03X614400Y2103900I-89526J95617D01*
G02X619600Y2109600I550558J-497042D01*
G02X624100Y2114300I288418J-271641D01*
G02X628000Y2118400I926802J-877687D01*
G02X628600Y2118700I768J-786D01*
G02X629000Y2118400I78J-312D01*
G02X628800Y2114000I-367055J14480D01*
G02X628500Y2108800I-153002J6218D01*
G02X628000Y2102600I-310759J21941D01*
G01X541700Y1972800D02*
Y1961500D01*
X459100Y1960300D01*
Y1985400D01*
X541700Y1984200D01*
Y1972800D01*
G01X524700Y1949700D02*
G02X524400Y1944600I-40496J-177D01*
G01X515500Y1874300D01*
X506600Y1804700D01*
G02X505400Y1797900I-73222J9416D01*
G02X504500Y1795600I-9158J2257D01*
G02X503200Y1794000I-4213J2095D01*
G02X501300Y1793100I-3053J3989D01*
G02X498600Y1792800I-2683J11845D01*
G02X496500Y1792900I1327J49968D01*
G02X494700Y1793000I538J25926D01*
G02X493200Y1793200I3591J32661D01*
G02X493000Y1793500I76J267D01*
G03X492800Y1797600I-37091J246D01*
G01X484900Y1868600D01*
X477100Y1938300D01*
G03X476100Y1945100I-104609J-11910D01*
G01X475000Y1951300D01*
X499900D01*
G02X509400Y1951200I540J-399965D01*
G02X517400Y1950900I-3595J-202672D01*
G02X524100Y1950400I-28983J-433516D01*
G02X524700Y1949700I-79J-675D01*
G01X524090Y2921000D02*
Y3048000D01*
X564300D01*
X577170Y3041650D01*
X585220Y3033180D01*
X588430Y3016250D01*
X585220Y2999320D01*
X575560Y2988730D01*
X564300Y2982380D01*
X524090D01*
G01X564300D02*
X588430Y2921000D01*
G01X685800D02*
Y3048000D01*
X666500Y3022600D01*
G01Y2921000D02*
X705100D01*
G01X1136500Y-782090D02*
Y-749910D01*
X1174600D01*
X1187300Y-759570D01*
X1195770Y-770830D01*
X1200000Y-786910D01*
X1195770Y-803000D01*
X1187300Y-814260D01*
X1174600Y-823910D01*
X1159780Y-830350D01*
X1142850Y-833570D01*
X1128030D01*
X1115340Y-830350D01*
X1100510Y-823910D01*
X1087820Y-814260D01*
X1079350Y-804610D01*
X1073000Y-791740D01*
Y-780480D01*
X1077230Y-767610D01*
X1085700Y-757960D01*
G01X1200000Y-699200D02*
X1073000D01*
X1200000Y-625200D01*
X1073000D01*
G01X1200000Y-568050D02*
X1073000D01*
Y-535880D01*
X1079350Y-523010D01*
X1087820Y-513360D01*
X1100510Y-505310D01*
X1115340Y-498880D01*
X1136500Y-497270D01*
X1157670Y-498880D01*
X1172490Y-505310D01*
X1185190Y-513360D01*
X1193650Y-523010D01*
X1200000Y-535880D01*
Y-568050D01*
G01X1450000Y-818740D02*
X1323000D01*
X1450000Y-744740D01*
X1323000D01*
G01X1333580Y-616810D02*
X1327230Y-626460D01*
X1323000Y-637720D01*
Y-650590D01*
X1329350Y-665070D01*
X1339930Y-676330D01*
X1352630Y-684370D01*
X1373800Y-690810D01*
X1392850Y-692420D01*
X1411900Y-689200D01*
X1424600Y-684370D01*
X1437300Y-674720D01*
X1445770Y-663460D01*
X1450000Y-652200D01*
Y-640940D01*
X1445770Y-629680D01*
X1439420Y-620030D01*
X1430950Y-611980D01*
G01X1684600Y-827130D02*
X1699420Y-817480D01*
X1707880Y-804610D01*
X1710000Y-790130D01*
X1707880Y-777260D01*
X1697300Y-764390D01*
X1684600Y-756350D01*
X1671900Y-754740D01*
X1657090Y-757960D01*
X1646500Y-769220D01*
X1642270Y-780480D01*
Y-794960D01*
G01Y-780480D02*
X1635920Y-770830D01*
X1625340Y-762780D01*
X1612630Y-759570D01*
X1599930Y-762780D01*
X1589350Y-770830D01*
X1583000Y-785310D01*
X1585120Y-799780D01*
X1593580Y-814260D01*
G01X1583000Y-702420D02*
X1710000Y-662200D01*
X1583000Y-621980D01*
G01X1536090Y3935400D02*
X1544130Y3922700D01*
X1553780Y3914230D01*
X1565040Y3910000D01*
X1577910Y3914230D01*
X1587560Y3922700D01*
X1597220Y3935400D01*
X1600430Y3952330D01*
Y4037000D01*
G01X1697800Y3910000D02*
Y4037000D01*
X1678500Y4011600D01*
G01Y3910000D02*
X1717100D01*
G01X1970000Y-823910D02*
X1843000D01*
Y-783700D01*
X1849350Y-770830D01*
X1857820Y-762780D01*
X1874750Y-759570D01*
X1891680Y-762780D01*
X1902270Y-772440D01*
X1908620Y-783700D01*
Y-823910D01*
G01Y-783700D02*
X1970000Y-759570D01*
G01X1953070Y-695980D02*
X1963650Y-683110D01*
X1970000Y-668630D01*
Y-655770D01*
X1963650Y-642900D01*
X1953070Y-633240D01*
X1938250Y-628420D01*
X1923440Y-631630D01*
X1910730Y-639680D01*
X1902270Y-654160D01*
X1898030Y-673460D01*
X1889570Y-684720D01*
X1874750Y-689550D01*
X1859930Y-686330D01*
X1849350Y-678290D01*
X1843000Y-667030D01*
Y-655770D01*
X1847230Y-644500D01*
X1857820Y-634850D01*
G01X1843000Y-532660D02*
X1970000D01*
G01X1843000Y-569660D02*
Y-495660D01*
G01X2222500Y1952410D02*
X2095500D01*
Y1888070D01*
G01X2222500Y1838960D02*
X2095500Y1816440D01*
X2222500Y1790700D01*
X2095500Y1764960D01*
X2222500Y1742440D01*
G01X2095500Y1691730D02*
X2222500D01*
Y1630590D01*
G01X2161120Y1653120D02*
Y1691730D01*
G01X2060000Y1610000D02*
X2270000D01*
Y1980000D01*
X2060000D01*
Y1610000D01*
G01X2159000Y2396910D02*
X2286000D01*
Y2356700D01*
X2279650Y2343830D01*
X2271180Y2335780D01*
X2254250Y2332570D01*
X2237320Y2335780D01*
X2226730Y2345440D01*
X2220380Y2356700D01*
Y2396910D01*
G01Y2356700D02*
X2159000Y2332570D01*
G01X2173810Y2262550D02*
X2163230Y2251290D01*
X2159000Y2238420D01*
X2163230Y2225550D01*
X2175930Y2214290D01*
X2194980Y2206240D01*
X2214030Y2203030D01*
X2237320D01*
X2256370Y2206240D01*
X2273300Y2214290D01*
X2281770Y2223940D01*
X2286000Y2235200D01*
X2281770Y2248070D01*
X2273300Y2257720D01*
X2260600Y2264160D01*
X2243660Y2267370D01*
X2228850Y2264160D01*
X2214030Y2256110D01*
X2205560Y2246460D01*
X2203450Y2235200D01*
X2207680Y2222330D01*
X2218270Y2212680D01*
X2237320Y2203030D01*
G01X2095500Y2904910D02*
X2222500D01*
Y2864700D01*
X2216150Y2851830D01*
X2207680Y2843780D01*
X2190750Y2840570D01*
X2173820Y2843780D01*
X2163230Y2853440D01*
X2156880Y2864700D01*
Y2904910D01*
G01Y2864700D02*
X2095500Y2840570D01*
G01X2112430Y2776980D02*
X2101850Y2764110D01*
X2095500Y2749630D01*
Y2736770D01*
X2101850Y2723900D01*
X2112430Y2714240D01*
X2127250Y2709420D01*
X2142060Y2712630D01*
X2154770Y2720680D01*
X2163230Y2735160D01*
X2167470Y2754460D01*
X2175930Y2765720D01*
X2190750Y2770550D01*
X2205570Y2767330D01*
X2216150Y2759290D01*
X2222500Y2748030D01*
Y2736770D01*
X2218270Y2725500D01*
X2207680Y2715850D01*
G01X2060000Y2940000D02*
X2270000D01*
Y2660000D01*
X2060000D01*
Y2940000D01*
G01X-9715400Y-10400800D02*
Y18275800D01*
X10909400D01*
Y-10400800D01*
X-9715400D01*
G01X-9334400Y-9562600D02*
Y17564600D01*
X10452200D01*
Y-9562600D01*
X-9334400D01*
G01X-9309000Y-9524500D02*
Y-4952500D01*
X10503000D01*
G01X-9100810Y-8064000D02*
Y-7937000D01*
X-9039670D01*
G01X-9062200Y-7998380D02*
X-9100810D01*
G01X-8972870Y-8064000D02*
Y-7937000D01*
X-8932660D01*
X-8919790Y-7943350D01*
X-8911740Y-7951820D01*
X-8908530Y-7968750D01*
X-8911740Y-7985680D01*
X-8921400Y-7996270D01*
X-8932660Y-8002620D01*
X-8972870D01*
G01X-8932660D02*
X-8908530Y-8064000D01*
G01X-8851380D02*
X-8811160Y-7937000D01*
X-8770940Y-8064000D01*
G01X-8785420Y-8019550D02*
X-8836900D01*
G01X-8646230Y-7947580D02*
X-8655880Y-7941230D01*
X-8667140Y-7937000D01*
X-8680010D01*
X-8694490Y-7943350D01*
X-8705750Y-7953930D01*
X-8713790Y-7966630D01*
X-8720230Y-7987800D01*
X-8721840Y-8006850D01*
X-8718620Y-8025900D01*
X-8713790Y-8038600D01*
X-8704140Y-8051300D01*
X-8692880Y-8059770D01*
X-8681620Y-8064000D01*
X-8670360D01*
X-8659100Y-8059770D01*
X-8649450Y-8053420D01*
X-8641400Y-8044950D01*
G01X-8552080Y-7937000D02*
Y-8064000D01*
G01X-8589080Y-7937000D02*
X-8515080D01*
G01X-8441840D02*
X-8403240D01*
G01X-8422540D02*
Y-8064000D01*
G01X-8441840D02*
X-8403240D01*
G01X-8293000D02*
X-8305870Y-8061880D01*
X-8317130Y-8053420D01*
X-8326780Y-8040720D01*
X-8333220Y-8025900D01*
X-8336440Y-8008970D01*
Y-7992030D01*
X-8333220Y-7975100D01*
X-8326780Y-7960280D01*
X-8317130Y-7947580D01*
X-8305870Y-7939120D01*
X-8293000Y-7937000D01*
X-8280130Y-7939120D01*
X-8268870Y-7947580D01*
X-8259220Y-7960280D01*
X-8252780Y-7975100D01*
X-8249560Y-7992030D01*
Y-8008970D01*
X-8252780Y-8025900D01*
X-8259220Y-8040720D01*
X-8268870Y-8053420D01*
X-8280130Y-8061880D01*
X-8293000Y-8064000D01*
G01X-8200460D02*
Y-7937000D01*
X-8126460Y-8064000D01*
Y-7937000D01*
G01X-8067700Y-8047070D02*
X-8054830Y-8057650D01*
X-8040350Y-8064000D01*
X-8027490D01*
X-8014620Y-8057650D01*
X-8004960Y-8047070D01*
X-8000140Y-8032250D01*
X-8003350Y-8017440D01*
X-8011400Y-8004730D01*
X-8025880Y-7996270D01*
X-8045180Y-7992030D01*
X-8056440Y-7983570D01*
X-8061270Y-7968750D01*
X-8058050Y-7953930D01*
X-8050010Y-7943350D01*
X-8038750Y-7937000D01*
X-8027490D01*
X-8016220Y-7941230D01*
X-8006570Y-7951820D01*
G01X-7792540Y-8021670D02*
X-7753930D01*
G01X-7774840Y-7994150D02*
Y-8049190D01*
G01X-9110460Y-7683000D02*
X-9070240Y-7556000D01*
X-9030020Y-7683000D01*
G01X-9044500Y-7638550D02*
X-9095980D01*
G01X-8977700Y-7683000D02*
Y-7556000D01*
X-8903700Y-7683000D01*
Y-7556000D01*
G01X-8801510Y-7619500D02*
X-8769330D01*
Y-7657600D01*
X-8778990Y-7670300D01*
X-8790250Y-7678770D01*
X-8806330Y-7683000D01*
X-8822420Y-7678770D01*
X-8833680Y-7670300D01*
X-8843330Y-7657600D01*
X-8849770Y-7642780D01*
X-8852990Y-7625850D01*
Y-7611030D01*
X-8849770Y-7598340D01*
X-8843330Y-7583510D01*
X-8833680Y-7570820D01*
X-8824030Y-7562350D01*
X-8811160Y-7556000D01*
X-8799900D01*
X-8787030Y-7560230D01*
X-8777380Y-7568700D01*
G01X-8713790Y-7556000D02*
Y-7683000D01*
X-8649450D01*
G01X-8519910D02*
X-8584250D01*
Y-7556000D01*
X-8519910D01*
G01X-8545650Y-7617380D02*
X-8584250D01*
G01X-8456320Y-7666070D02*
X-8443450Y-7676650D01*
X-8428970Y-7683000D01*
X-8416110D01*
X-8403240Y-7676650D01*
X-8393580Y-7666070D01*
X-8388760Y-7651250D01*
X-8391970Y-7636440D01*
X-8400020Y-7623730D01*
X-8414500Y-7615270D01*
X-8433800Y-7611030D01*
X-8445060Y-7602570D01*
X-8449890Y-7587750D01*
X-8446670Y-7572930D01*
X-8438630Y-7562350D01*
X-8427370Y-7556000D01*
X-8416110D01*
X-8404840Y-7560230D01*
X-8395190Y-7570820D01*
G01X-8181160Y-7640670D02*
X-8142550D01*
G01X-8163460Y-7613150D02*
Y-7668190D01*
G01X-9105630Y-7276600D02*
X-9095980Y-7291420D01*
X-9083110Y-7299880D01*
X-9068630Y-7302000D01*
X-9055760Y-7299880D01*
X-9042890Y-7289300D01*
X-9034850Y-7276600D01*
X-9033240Y-7263900D01*
X-9036460Y-7249090D01*
X-9047720Y-7238500D01*
X-9058980Y-7234270D01*
X-9073460D01*
G01X-9058980D02*
X-9049330Y-7227920D01*
X-9041280Y-7217340D01*
X-9038070Y-7204630D01*
X-9041280Y-7191930D01*
X-9049330Y-7181350D01*
X-9063810Y-7175000D01*
X-9078280Y-7177120D01*
X-9092760Y-7185580D01*
G01X-8843330Y-7302000D02*
Y-7175000D01*
X-8804730D01*
X-8791860Y-7181350D01*
X-8782200Y-7196170D01*
X-8778990Y-7213100D01*
X-8782200Y-7230030D01*
X-8790250Y-7242730D01*
X-8804730Y-7249090D01*
X-8843330D01*
G01X-8713790Y-7175000D02*
Y-7302000D01*
X-8649450D01*
G01X-8457930D02*
Y-7175000D01*
X-8425760D01*
X-8412890Y-7181350D01*
X-8403240Y-7189820D01*
X-8395190Y-7202510D01*
X-8388760Y-7217340D01*
X-8387150Y-7238500D01*
X-8388760Y-7259670D01*
X-8395190Y-7274490D01*
X-8403240Y-7287190D01*
X-8412890Y-7295650D01*
X-8425760Y-7302000D01*
X-8457930D01*
G01X-8260830D02*
X-8325170D01*
Y-7175000D01*
X-8260830D01*
G01X-8286570Y-7236380D02*
X-8325170D01*
G01X-8128070Y-7185580D02*
X-8137720Y-7179230D01*
X-8148980Y-7175000D01*
X-8161850D01*
X-8176330Y-7181350D01*
X-8187590Y-7191930D01*
X-8195630Y-7204630D01*
X-8202070Y-7225800D01*
X-8203680Y-7244850D01*
X-8200460Y-7263900D01*
X-8195630Y-7276600D01*
X-8185980Y-7289300D01*
X-8174720Y-7297770D01*
X-8163460Y-7302000D01*
X-8152200D01*
X-8140940Y-7297770D01*
X-8131290Y-7291420D01*
X-8123240Y-7282950D01*
G01X-8053220Y-7175000D02*
X-8014620D01*
G01X-8033920D02*
Y-7302000D01*
G01X-8053220D02*
X-8014620D01*
G01X-7946210D02*
Y-7175000D01*
X-7904380Y-7280830D01*
X-7862550Y-7175000D01*
Y-7302000D01*
G01X-7815060D02*
X-7774840Y-7175000D01*
X-7734620Y-7302000D01*
G01X-7749100Y-7257550D02*
X-7800580D01*
G01X-7677470Y-7175000D02*
Y-7302000D01*
X-7613130D01*
G01X-7549540Y-7285070D02*
X-7536670Y-7295650D01*
X-7522190Y-7302000D01*
X-7509330D01*
X-7496460Y-7295650D01*
X-7486800Y-7285070D01*
X-7481980Y-7270250D01*
X-7485190Y-7255440D01*
X-7493240Y-7242730D01*
X-7507720Y-7234270D01*
X-7527020Y-7230030D01*
X-7538280Y-7221570D01*
X-7543110Y-7206750D01*
X-7539890Y-7191930D01*
X-7531850Y-7181350D01*
X-7520590Y-7175000D01*
X-7509330D01*
X-7498060Y-7179230D01*
X-7488410Y-7189820D01*
G01X-7274380Y-7259670D02*
X-7235770D01*
G01X-7256680Y-7232150D02*
Y-7287190D01*
G01X-9100810Y-6815170D02*
X-9091150Y-6802470D01*
X-9079890Y-6796120D01*
X-9067020Y-6794000D01*
X-9050940Y-6798230D01*
X-9039670Y-6808820D01*
X-9036460Y-6821510D01*
X-9038070Y-6834220D01*
X-9044500Y-6844800D01*
X-9076670Y-6865970D01*
X-9091150Y-6880780D01*
X-9100810Y-6901950D01*
X-9104020Y-6921000D01*
X-9036460D01*
G01X-8843330D02*
Y-6794000D01*
X-8804730D01*
X-8791860Y-6800350D01*
X-8782200Y-6815170D01*
X-8778990Y-6832100D01*
X-8782200Y-6849030D01*
X-8790250Y-6861730D01*
X-8804730Y-6868090D01*
X-8843330D01*
G01X-8713790Y-6794000D02*
Y-6921000D01*
X-8649450D01*
G01X-8457930D02*
Y-6794000D01*
X-8425760D01*
X-8412890Y-6800350D01*
X-8403240Y-6808820D01*
X-8395190Y-6821510D01*
X-8388760Y-6836340D01*
X-8387150Y-6857500D01*
X-8388760Y-6878670D01*
X-8395190Y-6893490D01*
X-8403240Y-6906190D01*
X-8412890Y-6914650D01*
X-8425760Y-6921000D01*
X-8457930D01*
G01X-8260830D02*
X-8325170D01*
Y-6794000D01*
X-8260830D01*
G01X-8286570Y-6855380D02*
X-8325170D01*
G01X-8128070Y-6804580D02*
X-8137720Y-6798230D01*
X-8148980Y-6794000D01*
X-8161850D01*
X-8176330Y-6800350D01*
X-8187590Y-6810930D01*
X-8195630Y-6823630D01*
X-8202070Y-6844800D01*
X-8203680Y-6863850D01*
X-8200460Y-6882900D01*
X-8195630Y-6895600D01*
X-8185980Y-6908300D01*
X-8174720Y-6916770D01*
X-8163460Y-6921000D01*
X-8152200D01*
X-8140940Y-6916770D01*
X-8131290Y-6910420D01*
X-8123240Y-6901950D01*
G01X-8053220Y-6794000D02*
X-8014620D01*
G01X-8033920D02*
Y-6921000D01*
G01X-8053220D02*
X-8014620D01*
G01X-7946210D02*
Y-6794000D01*
X-7904380Y-6899830D01*
X-7862550Y-6794000D01*
Y-6921000D01*
G01X-7815060D02*
X-7774840Y-6794000D01*
X-7734620Y-6921000D01*
G01X-7749100Y-6876550D02*
X-7800580D01*
G01X-7677470Y-6794000D02*
Y-6921000D01*
X-7613130D01*
G01X-7549540Y-6904070D02*
X-7536670Y-6914650D01*
X-7522190Y-6921000D01*
X-7509330D01*
X-7496460Y-6914650D01*
X-7486800Y-6904070D01*
X-7481980Y-6889250D01*
X-7485190Y-6874440D01*
X-7493240Y-6861730D01*
X-7507720Y-6853270D01*
X-7527020Y-6849030D01*
X-7538280Y-6840570D01*
X-7543110Y-6825750D01*
X-7539890Y-6810930D01*
X-7531850Y-6800350D01*
X-7520590Y-6794000D01*
X-7509330D01*
X-7498060Y-6798230D01*
X-7488410Y-6808820D01*
G01X-7274380Y-6878670D02*
X-7235770D01*
G01X-7256680Y-6851150D02*
Y-6906190D01*
G01X-9070240Y-6413000D02*
Y-6540000D01*
G01X-9107240Y-6413000D02*
X-9033240D01*
G01X-8940700Y-6540000D02*
X-8953570Y-6537880D01*
X-8964830Y-6529420D01*
X-8974480Y-6516720D01*
X-8980920Y-6501900D01*
X-8984140Y-6484970D01*
Y-6468030D01*
X-8980920Y-6451100D01*
X-8974480Y-6436280D01*
X-8964830Y-6423580D01*
X-8953570Y-6415120D01*
X-8940700Y-6413000D01*
X-8927830Y-6415120D01*
X-8916570Y-6423580D01*
X-8906920Y-6436280D01*
X-8900480Y-6451100D01*
X-8897260Y-6468030D01*
Y-6484970D01*
X-8900480Y-6501900D01*
X-8906920Y-6516720D01*
X-8916570Y-6529420D01*
X-8927830Y-6537880D01*
X-8940700Y-6540000D01*
G01X-8843330Y-6413000D02*
Y-6540000D01*
X-8778990D01*
G01X-8649450D02*
X-8713790D01*
Y-6413000D01*
X-8649450D01*
G01X-8675190Y-6474380D02*
X-8713790D01*
G01X-8584250Y-6540000D02*
Y-6413000D01*
X-8544040D01*
X-8531170Y-6419350D01*
X-8523120Y-6427820D01*
X-8519910Y-6444750D01*
X-8523120Y-6461680D01*
X-8532780Y-6472270D01*
X-8544040Y-6478620D01*
X-8584250D01*
G01X-8544040D02*
X-8519910Y-6540000D01*
G01X-8462760D02*
X-8422540Y-6413000D01*
X-8382320Y-6540000D01*
G01X-8396800Y-6495550D02*
X-8448280D01*
G01X-8330000Y-6540000D02*
Y-6413000D01*
X-8256000Y-6540000D01*
Y-6413000D01*
G01X-8128070Y-6423580D02*
X-8137720Y-6417230D01*
X-8148980Y-6413000D01*
X-8161850D01*
X-8176330Y-6419350D01*
X-8187590Y-6429930D01*
X-8195630Y-6442630D01*
X-8202070Y-6463800D01*
X-8203680Y-6482850D01*
X-8200460Y-6501900D01*
X-8195630Y-6514600D01*
X-8185980Y-6527300D01*
X-8174720Y-6535770D01*
X-8163460Y-6540000D01*
X-8152200D01*
X-8140940Y-6535770D01*
X-8131290Y-6529420D01*
X-8123240Y-6520950D01*
G01X-8001750Y-6540000D02*
X-8066090D01*
Y-6413000D01*
X-8001750D01*
G01X-8027490Y-6474380D02*
X-8066090D01*
G01X-7938160Y-6523070D02*
X-7925290Y-6533650D01*
X-7910810Y-6540000D01*
X-7897950D01*
X-7885080Y-6533650D01*
X-7875420Y-6523070D01*
X-7870600Y-6508250D01*
X-7873810Y-6493440D01*
X-7881860Y-6480730D01*
X-7896340Y-6472270D01*
X-7915640Y-6468030D01*
X-7926900Y-6459570D01*
X-7931730Y-6444750D01*
X-7928510Y-6429930D01*
X-7920470Y-6419350D01*
X-7909210Y-6413000D01*
X-7897950D01*
X-7886680Y-6417230D01*
X-7877030Y-6427820D01*
G01X-7645300Y-6540000D02*
X-7658170Y-6537880D01*
X-7669430Y-6529420D01*
X-7679080Y-6516720D01*
X-7685520Y-6501900D01*
X-7688740Y-6484970D01*
Y-6468030D01*
X-7685520Y-6451100D01*
X-7679080Y-6436280D01*
X-7669430Y-6423580D01*
X-7658170Y-6415120D01*
X-7645300Y-6413000D01*
X-7632430Y-6415120D01*
X-7621170Y-6423580D01*
X-7611520Y-6436280D01*
X-7605080Y-6451100D01*
X-7601860Y-6468030D01*
Y-6484970D01*
X-7605080Y-6501900D01*
X-7611520Y-6516720D01*
X-7621170Y-6529420D01*
X-7632430Y-6537880D01*
X-7645300Y-6540000D01*
G01X-7552760D02*
Y-6413000D01*
X-7478760Y-6540000D01*
Y-6413000D01*
G01X-7386220Y-6544230D02*
X-7389440Y-6542120D01*
Y-6537880D01*
X-7386220Y-6535770D01*
X-7383000Y-6537880D01*
Y-6542120D01*
X-7386220Y-6544230D01*
G01Y-6487090D02*
X-7389440Y-6484970D01*
Y-6480730D01*
X-7386220Y-6478620D01*
X-7383000Y-6480730D01*
Y-6484970D01*
X-7386220Y-6487090D01*
G01X-9105630Y-6095500D02*
Y-5968500D01*
X-9073460D01*
X-9060590Y-5974850D01*
X-9050940Y-5983320D01*
X-9042890Y-5996010D01*
X-9036460Y-6010840D01*
X-9034850Y-6032000D01*
X-9036460Y-6053170D01*
X-9042890Y-6067990D01*
X-9050940Y-6080690D01*
X-9060590Y-6089150D01*
X-9073460Y-6095500D01*
X-9105630D01*
G01X-8960000Y-5968500D02*
X-8921400D01*
G01X-8940700D02*
Y-6095500D01*
G01X-8960000D02*
X-8921400D01*
G01X-8852990D02*
Y-5968500D01*
X-8811160Y-6074330D01*
X-8769330Y-5968500D01*
Y-6095500D01*
G01X-8649450D02*
X-8713790D01*
Y-5968500D01*
X-8649450D01*
G01X-8675190Y-6029880D02*
X-8713790D01*
G01X-8589080Y-6095500D02*
Y-5968500D01*
X-8515080Y-6095500D01*
Y-5968500D01*
G01X-8456320Y-6078570D02*
X-8443450Y-6089150D01*
X-8428970Y-6095500D01*
X-8416110D01*
X-8403240Y-6089150D01*
X-8393580Y-6078570D01*
X-8388760Y-6063750D01*
X-8391970Y-6048940D01*
X-8400020Y-6036230D01*
X-8414500Y-6027770D01*
X-8433800Y-6023530D01*
X-8445060Y-6015070D01*
X-8449890Y-6000250D01*
X-8446670Y-5985430D01*
X-8438630Y-5974850D01*
X-8427370Y-5968500D01*
X-8416110D01*
X-8404840Y-5972730D01*
X-8395190Y-5983320D01*
G01X-8312300Y-5968500D02*
X-8273700D01*
G01X-8293000D02*
Y-6095500D01*
G01X-8312300D02*
X-8273700D01*
G01X-8163460D02*
X-8176330Y-6093380D01*
X-8187590Y-6084920D01*
X-8197240Y-6072220D01*
X-8203680Y-6057400D01*
X-8206900Y-6040470D01*
Y-6023530D01*
X-8203680Y-6006600D01*
X-8197240Y-5991780D01*
X-8187590Y-5979080D01*
X-8176330Y-5970620D01*
X-8163460Y-5968500D01*
X-8150590Y-5970620D01*
X-8139330Y-5979080D01*
X-8129680Y-5991780D01*
X-8123240Y-6006600D01*
X-8120020Y-6023530D01*
Y-6040470D01*
X-8123240Y-6057400D01*
X-8129680Y-6072220D01*
X-8139330Y-6084920D01*
X-8150590Y-6093380D01*
X-8163460Y-6095500D01*
G01X-8070920D02*
Y-5968500D01*
X-7996920Y-6095500D01*
Y-5968500D01*
G01X-7938160Y-6078570D02*
X-7925290Y-6089150D01*
X-7910810Y-6095500D01*
X-7897950D01*
X-7885080Y-6089150D01*
X-7875420Y-6078570D01*
X-7870600Y-6063750D01*
X-7873810Y-6048940D01*
X-7881860Y-6036230D01*
X-7896340Y-6027770D01*
X-7915640Y-6023530D01*
X-7926900Y-6015070D01*
X-7931730Y-6000250D01*
X-7928510Y-5985430D01*
X-7920470Y-5974850D01*
X-7909210Y-5968500D01*
X-7897950D01*
X-7886680Y-5972730D01*
X-7877030Y-5983320D01*
G01X-7685520Y-6095500D02*
X-7645300Y-5968500D01*
X-7605080Y-6095500D01*
G01X-7619560Y-6051050D02*
X-7671040D01*
G01X-7547930Y-6095500D02*
Y-5968500D01*
X-7507720D01*
X-7494850Y-5974850D01*
X-7486800Y-5983320D01*
X-7483590Y-6000250D01*
X-7486800Y-6017180D01*
X-7496460Y-6027770D01*
X-7507720Y-6034120D01*
X-7547930D01*
G01X-7507720D02*
X-7483590Y-6095500D01*
G01X-7354050D02*
X-7418390D01*
Y-5968500D01*
X-7354050D01*
G01X-7379790Y-6029880D02*
X-7418390D01*
G01X-7146440Y-5968500D02*
X-7107840D01*
G01X-7127140D02*
Y-6095500D01*
G01X-7146440D02*
X-7107840D01*
G01X-7034600D02*
Y-5968500D01*
X-6960600Y-6095500D01*
Y-5968500D01*
G01X-6757820D02*
X-6719220D01*
G01X-6738520D02*
Y-6095500D01*
G01X-6757820D02*
X-6719220D01*
G01X-6645980D02*
Y-5968500D01*
X-6571980Y-6095500D01*
Y-5968500D01*
G01X-6444050Y-5979080D02*
X-6453700Y-5972730D01*
X-6464960Y-5968500D01*
X-6477830D01*
X-6492310Y-5974850D01*
X-6503570Y-5985430D01*
X-6511610Y-5998130D01*
X-6518050Y-6019300D01*
X-6519660Y-6038350D01*
X-6516440Y-6057400D01*
X-6511610Y-6070100D01*
X-6501960Y-6082800D01*
X-6490700Y-6091270D01*
X-6479440Y-6095500D01*
X-6468180D01*
X-6456920Y-6091270D01*
X-6447270Y-6084920D01*
X-6439220Y-6076450D01*
G01X-6383680Y-6095500D02*
Y-5968500D01*
G01X-6316120D02*
Y-6095500D01*
G01Y-6032000D02*
X-6383680D01*
G01X-6188190Y-6095500D02*
X-6252530D01*
Y-5968500D01*
X-6188190D01*
G01X-6213930Y-6029880D02*
X-6252530D01*
G01X-6124600Y-6078570D02*
X-6111730Y-6089150D01*
X-6097250Y-6095500D01*
X-6084390D01*
X-6071520Y-6089150D01*
X-6061860Y-6078570D01*
X-6057040Y-6063750D01*
X-6060250Y-6048940D01*
X-6068300Y-6036230D01*
X-6082780Y-6027770D01*
X-6102080Y-6023530D01*
X-6113340Y-6015070D01*
X-6118170Y-6000250D01*
X-6114950Y-5985430D01*
X-6106910Y-5974850D01*
X-6095650Y-5968500D01*
X-6084390D01*
X-6073120Y-5972730D01*
X-6063470Y-5983320D01*
G01X-9105630Y-5270000D02*
Y-5361020D01*
X-9099200Y-5380070D01*
X-9086330Y-5392770D01*
X-9070240Y-5397000D01*
X-9054150Y-5392770D01*
X-9041280Y-5380070D01*
X-9034850Y-5361020D01*
Y-5270000D01*
G01X-8977700Y-5397000D02*
Y-5270000D01*
X-8903700Y-5397000D01*
Y-5270000D01*
G01X-8843330D02*
Y-5397000D01*
X-8778990D01*
G01X-8649450D02*
X-8713790D01*
Y-5270000D01*
X-8649450D01*
G01X-8675190Y-5331380D02*
X-8713790D01*
G01X-8585860Y-5380070D02*
X-8572990Y-5390650D01*
X-8558510Y-5397000D01*
X-8545650D01*
X-8532780Y-5390650D01*
X-8523120Y-5380070D01*
X-8518300Y-5365250D01*
X-8521510Y-5350440D01*
X-8529560Y-5337730D01*
X-8544040Y-5329270D01*
X-8563340Y-5325030D01*
X-8574600Y-5316570D01*
X-8579430Y-5301750D01*
X-8576210Y-5286930D01*
X-8568170Y-5276350D01*
X-8556910Y-5270000D01*
X-8545650D01*
X-8534380Y-5274230D01*
X-8524730Y-5284820D01*
G01X-8456320Y-5380070D02*
X-8443450Y-5390650D01*
X-8428970Y-5397000D01*
X-8416110D01*
X-8403240Y-5390650D01*
X-8393580Y-5380070D01*
X-8388760Y-5365250D01*
X-8391970Y-5350440D01*
X-8400020Y-5337730D01*
X-8414500Y-5329270D01*
X-8433800Y-5325030D01*
X-8445060Y-5316570D01*
X-8449890Y-5301750D01*
X-8446670Y-5286930D01*
X-8438630Y-5276350D01*
X-8427370Y-5270000D01*
X-8416110D01*
X-8404840Y-5274230D01*
X-8395190Y-5284820D01*
G01X-8163460Y-5397000D02*
X-8176330Y-5394880D01*
X-8187590Y-5386420D01*
X-8197240Y-5373720D01*
X-8203680Y-5358900D01*
X-8206900Y-5341970D01*
Y-5325030D01*
X-8203680Y-5308100D01*
X-8197240Y-5293280D01*
X-8187590Y-5280580D01*
X-8176330Y-5272120D01*
X-8163460Y-5270000D01*
X-8150590Y-5272120D01*
X-8139330Y-5280580D01*
X-8129680Y-5293280D01*
X-8123240Y-5308100D01*
X-8120020Y-5325030D01*
Y-5341970D01*
X-8123240Y-5358900D01*
X-8129680Y-5373720D01*
X-8139330Y-5386420D01*
X-8150590Y-5394880D01*
X-8163460Y-5397000D01*
G01X-8033920Y-5270000D02*
Y-5397000D01*
G01X-8070920Y-5270000D02*
X-7996920D01*
G01X-7938160Y-5397000D02*
Y-5270000D01*
G01X-7870600D02*
Y-5397000D01*
G01Y-5333500D02*
X-7938160D01*
G01X-7742670Y-5397000D02*
X-7807010D01*
Y-5270000D01*
X-7742670D01*
G01X-7768410Y-5331380D02*
X-7807010D01*
G01X-7677470Y-5397000D02*
Y-5270000D01*
X-7637260D01*
X-7624390Y-5276350D01*
X-7616340Y-5284820D01*
X-7613130Y-5301750D01*
X-7616340Y-5318680D01*
X-7626000Y-5329270D01*
X-7637260Y-5335620D01*
X-7677470D01*
G01X-7637260D02*
X-7613130Y-5397000D01*
G01X-7564020Y-5270000D02*
X-7541500Y-5397000D01*
X-7515760Y-5270000D01*
X-7490020Y-5397000D01*
X-7467500Y-5270000D01*
G01X-7405520D02*
X-7366920D01*
G01X-7386220D02*
Y-5397000D01*
G01X-7405520D02*
X-7366920D01*
G01X-7290460Y-5380070D02*
X-7277590Y-5390650D01*
X-7263110Y-5397000D01*
X-7250250D01*
X-7237380Y-5390650D01*
X-7227720Y-5380070D01*
X-7222900Y-5365250D01*
X-7226110Y-5350440D01*
X-7234160Y-5337730D01*
X-7248640Y-5329270D01*
X-7267940Y-5325030D01*
X-7279200Y-5316570D01*
X-7284030Y-5301750D01*
X-7280810Y-5286930D01*
X-7272770Y-5276350D01*
X-7261510Y-5270000D01*
X-7250250D01*
X-7238980Y-5274230D01*
X-7229330Y-5284820D01*
G01X-7094970Y-5397000D02*
X-7159310D01*
Y-5270000D01*
X-7094970D01*
G01X-7120710Y-5331380D02*
X-7159310D01*
G01X-6901840Y-5380070D02*
X-6888970Y-5390650D01*
X-6874490Y-5397000D01*
X-6861630D01*
X-6848760Y-5390650D01*
X-6839100Y-5380070D01*
X-6834280Y-5365250D01*
X-6837490Y-5350440D01*
X-6845540Y-5337730D01*
X-6860020Y-5329270D01*
X-6879320Y-5325030D01*
X-6890580Y-5316570D01*
X-6895410Y-5301750D01*
X-6892190Y-5286930D01*
X-6884150Y-5276350D01*
X-6872890Y-5270000D01*
X-6861630D01*
X-6850360Y-5274230D01*
X-6840710Y-5284820D01*
G01X-6770690Y-5397000D02*
Y-5270000D01*
X-6732090D01*
X-6719220Y-5276350D01*
X-6709560Y-5291170D01*
X-6706350Y-5308100D01*
X-6709560Y-5325030D01*
X-6717610Y-5337730D01*
X-6732090Y-5344090D01*
X-6770690D01*
G01X-6576810Y-5397000D02*
X-6641150D01*
Y-5270000D01*
X-6576810D01*
G01X-6602550Y-5331380D02*
X-6641150D01*
G01X-6444050Y-5280580D02*
X-6453700Y-5274230D01*
X-6464960Y-5270000D01*
X-6477830D01*
X-6492310Y-5276350D01*
X-6503570Y-5286930D01*
X-6511610Y-5299630D01*
X-6518050Y-5320800D01*
X-6519660Y-5339850D01*
X-6516440Y-5358900D01*
X-6511610Y-5371600D01*
X-6501960Y-5384300D01*
X-6490700Y-5392770D01*
X-6479440Y-5397000D01*
X-6468180D01*
X-6456920Y-5392770D01*
X-6447270Y-5386420D01*
X-6439220Y-5377950D01*
G01X-6369200Y-5270000D02*
X-6330600D01*
G01X-6349900D02*
Y-5397000D01*
G01X-6369200D02*
X-6330600D01*
G01X-6250930D02*
Y-5270000D01*
X-6189790D01*
G01X-6212320Y-5331380D02*
X-6250930D01*
G01X-6110120Y-5270000D02*
X-6071520D01*
G01X-6090820D02*
Y-5397000D01*
G01X-6110120D02*
X-6071520D01*
G01X-5929110D02*
X-5993450D01*
Y-5270000D01*
X-5929110D01*
G01X-5954850Y-5331380D02*
X-5993450D01*
G01X-5867130Y-5397000D02*
Y-5270000D01*
X-5834960D01*
X-5822090Y-5276350D01*
X-5812440Y-5284820D01*
X-5804390Y-5297510D01*
X-5797960Y-5312340D01*
X-5796350Y-5333500D01*
X-5797960Y-5354670D01*
X-5804390Y-5369490D01*
X-5812440Y-5382190D01*
X-5822090Y-5390650D01*
X-5834960Y-5397000D01*
X-5867130D01*
G01X-9309000Y-5714500D02*
X-165000D01*
G01X-5499000Y-4952500D02*
Y-9524500D01*
G01Y-8635500D02*
X-165000D01*
G01X-5499000Y-8000500D02*
X-165000D01*
G01X-5499000Y-7238500D02*
X-165000D01*
G01X-5499000Y-6476500D02*
X-165000D01*
G01X-4401590Y-5375670D02*
X-4385680Y-5389000D01*
X-4367770Y-5397000D01*
X-4351850D01*
X-4335930Y-5389000D01*
X-4323990Y-5375670D01*
X-4318030Y-5356990D01*
X-4322010Y-5338330D01*
X-4331960Y-5322330D01*
X-4349860Y-5311650D01*
X-4373740Y-5306320D01*
X-4387660Y-5295660D01*
X-4393640Y-5276990D01*
X-4389650Y-5258320D01*
X-4379710Y-5244980D01*
X-4365780Y-5236980D01*
X-4351850D01*
X-4337920Y-5242310D01*
X-4325980Y-5255650D01*
G01X-4223670Y-5236980D02*
X-4175920D01*
G01X-4199790D02*
Y-5397000D01*
G01X-4223670D02*
X-4175920D01*
G01X-4027830Y-5316990D02*
X-3988040D01*
Y-5365000D01*
X-3999980Y-5381000D01*
X-4013900Y-5391670D01*
X-4033800Y-5397000D01*
X-4053700Y-5391670D01*
X-4067620Y-5381000D01*
X-4079560Y-5365000D01*
X-4087520Y-5346330D01*
X-4091500Y-5324990D01*
Y-5306320D01*
X-4087520Y-5290320D01*
X-4079560Y-5271650D01*
X-4067620Y-5255650D01*
X-4055690Y-5244980D01*
X-4039770Y-5236980D01*
X-4025840D01*
X-4009930Y-5242310D01*
X-3997990Y-5252980D01*
G01X-3925510Y-5397000D02*
Y-5236980D01*
X-3833990Y-5397000D01*
Y-5236980D01*
G01X-3769470Y-5397000D02*
X-3719730Y-5236980D01*
X-3669990Y-5397000D01*
G01X-3687900Y-5341000D02*
X-3751570D01*
G01X-3559710Y-5236980D02*
Y-5397000D01*
G01X-3605470Y-5236980D02*
X-3513950D01*
G01X-3443460D02*
Y-5351660D01*
X-3435510Y-5375670D01*
X-3419590Y-5391670D01*
X-3399690Y-5397000D01*
X-3379790Y-5391670D01*
X-3363870Y-5375670D01*
X-3355920Y-5351660D01*
Y-5236980D01*
G01X-3279460Y-5397000D02*
Y-5236980D01*
X-3229720D01*
X-3213800Y-5244980D01*
X-3203850Y-5255650D01*
X-3199880Y-5276990D01*
X-3203850Y-5298320D01*
X-3215790Y-5311650D01*
X-3229720Y-5319660D01*
X-3279460D01*
G01X-3229720D02*
X-3199880Y-5397000D01*
G01X-3039860D02*
X-3119440D01*
Y-5236980D01*
X-3039860D01*
G01X-3071690Y-5314320D02*
X-3119440D01*
G01X-2961410Y-5375670D02*
X-2945500Y-5389000D01*
X-2927590Y-5397000D01*
X-2911670D01*
X-2895750Y-5389000D01*
X-2883810Y-5375670D01*
X-2877850Y-5356990D01*
X-2881830Y-5338330D01*
X-2891780Y-5322330D01*
X-2909680Y-5311650D01*
X-2933560Y-5306320D01*
X-2947480Y-5295660D01*
X-2953460Y-5276990D01*
X-2949470Y-5258320D01*
X-2939530Y-5244980D01*
X-2925600Y-5236980D01*
X-2911670D01*
X-2897740Y-5242310D01*
X-2885800Y-5255650D01*
G01X-2197000Y-7937000D02*
Y-8000500D01*
G01Y-7937000D02*
Y-4952500D01*
G01X-2500000Y-1268000D02*
Y4732000D01*
X2500000D01*
Y-1268000D01*
X-2500000D01*
G01X-2260500Y15177000D02*
Y14415000D01*
G01Y17463000D02*
Y15177000D01*
G01Y15939000D02*
X10439500D01*
G01X-2260500Y16701000D02*
X10439500D01*
G01X-1546080Y-5397000D02*
Y-5236980D01*
X-1506290D01*
X-1490370Y-5244980D01*
X-1478430Y-5255650D01*
X-1468480Y-5271650D01*
X-1460530Y-5290320D01*
X-1458540Y-5316990D01*
X-1460530Y-5343660D01*
X-1468480Y-5362330D01*
X-1478430Y-5378330D01*
X-1490370Y-5389000D01*
X-1506290Y-5397000D01*
X-1546080D01*
G01X-1392030D02*
X-1342290Y-5236980D01*
X-1292550Y-5397000D01*
G01X-1310460Y-5341000D02*
X-1374130D01*
G01X-1182270Y-5236980D02*
Y-5397000D01*
G01X-1228030Y-5236980D02*
X-1136510D01*
G01X-982460Y-5397000D02*
X-1062040D01*
Y-5236980D01*
X-982460D01*
G01X-1014290Y-5314320D02*
X-1062040D01*
G01X-2101750Y16193000D02*
Y16447000D01*
X-2022380D01*
X-1996980Y16434290D01*
X-1981100Y16417370D01*
X-1974750Y16383500D01*
X-1981100Y16349630D01*
X-2000150Y16328470D01*
X-2022380Y16315760D01*
X-2101750D01*
G01X-2022380D02*
X-1974750Y16193000D01*
G01X-1720750D02*
X-1847750D01*
Y16447000D01*
X-1720750D01*
G01X-1771550Y16324240D02*
X-1847750D01*
G01X-1609630Y16447000D02*
X-1530250Y16193000D01*
X-1450870Y16447000D01*
G01X-1244500Y15177000D02*
Y14415000D01*
G01Y15177000D02*
Y16701000D01*
G01X-9430Y-9109640D02*
X15980Y-9130800D01*
X44550Y-9143500D01*
X69950D01*
X95350Y-9130800D01*
X114400Y-9109640D01*
X123930Y-9080000D01*
X117580Y-9050370D01*
X101700Y-9024970D01*
X73120Y-9008030D01*
X35030Y-8999570D01*
X12800Y-8982640D01*
X3270Y-8953000D01*
X9630Y-8923370D01*
X25500Y-8902210D01*
X47720Y-8889500D01*
X69950D01*
X92180Y-8897960D01*
X111230Y-8919130D01*
G01X381100Y-8910670D02*
X362050Y-8897960D01*
X339830Y-8889500D01*
X314430D01*
X285850Y-8902210D01*
X263630Y-8923370D01*
X247750Y-8948770D01*
X235050Y-8991100D01*
X231870Y-9029200D01*
X238230Y-9067300D01*
X247750Y-9092700D01*
X266800Y-9118110D01*
X289030Y-9135040D01*
X311250Y-9143500D01*
X333470D01*
X355700Y-9135040D01*
X374750Y-9122340D01*
X390630Y-9105410D01*
G01X485870Y-9143500D02*
X565250Y-8889500D01*
X644630Y-9143500D01*
G01X616050Y-9054600D02*
X514450D01*
G01X755750Y-8889500D02*
Y-9143500D01*
X882750D01*
G01X1136750D02*
X1009750D01*
Y-8889500D01*
X1136750D01*
G01X1085950Y-9012260D02*
X1009750D01*
G01X-165000Y-4952500D02*
Y-9524500D01*
G01X6185000Y-8762500D02*
X-165000D01*
G01X-9430Y-8093640D02*
X15980Y-8114800D01*
X44550Y-8127500D01*
X69950D01*
X95350Y-8114800D01*
X114400Y-8093640D01*
X123930Y-8064000D01*
X117580Y-8034370D01*
X101700Y-8008970D01*
X73120Y-7992030D01*
X35030Y-7983570D01*
X12800Y-7966640D01*
X3270Y-7937000D01*
X9630Y-7907370D01*
X25500Y-7886210D01*
X47720Y-7873500D01*
X69950D01*
X92180Y-7881960D01*
X111230Y-7903130D01*
G01X273150Y-7873500D02*
X349340D01*
G01X311250D02*
Y-8127500D01*
G01X273150D02*
X349340D01*
G01X504920Y-7873500D02*
X625580D01*
X504920Y-8127500D01*
X625580D01*
G01X882750D02*
X755750D01*
Y-7873500D01*
X882750D01*
G01X831950Y-7996260D02*
X755750D01*
G01X10503000Y-7746500D02*
X-165000D01*
G01X10503000Y-6222500D02*
X-165000D01*
G01X558900Y16193000D02*
Y16447000D01*
X622400D01*
X647800Y16434290D01*
X666850Y16417370D01*
X682730Y16391970D01*
X695430Y16362330D01*
X698600Y16320000D01*
X695430Y16277660D01*
X682730Y16248030D01*
X666850Y16222630D01*
X647800Y16205700D01*
X622400Y16193000D01*
X558900D01*
G01X946250D02*
X819250D01*
Y16447000D01*
X946250D01*
G01X895450Y16324240D02*
X819250D01*
G01X1070070Y16226860D02*
X1095480Y16205700D01*
X1124050Y16193000D01*
X1149450D01*
X1174850Y16205700D01*
X1193900Y16226860D01*
X1203430Y16256500D01*
X1197080Y16286130D01*
X1181200Y16311530D01*
X1152620Y16328470D01*
X1114530Y16336930D01*
X1092300Y16353860D01*
X1082770Y16383500D01*
X1089130Y16413130D01*
X1105000Y16434290D01*
X1127220Y16447000D01*
X1149450D01*
X1171680Y16438540D01*
X1190730Y16417370D01*
G01X1460600Y16425830D02*
X1441550Y16438540D01*
X1419330Y16447000D01*
X1393930D01*
X1365350Y16434290D01*
X1343130Y16413130D01*
X1327250Y16387730D01*
X1314550Y16345400D01*
X1311370Y16307300D01*
X1317730Y16269200D01*
X1327250Y16243800D01*
X1346300Y16218390D01*
X1368530Y16201460D01*
X1390750Y16193000D01*
X1412970D01*
X1435200Y16201460D01*
X1454250Y16214160D01*
X1470130Y16231090D01*
G01X1581250Y16193000D02*
Y16447000D01*
X1660620D01*
X1686020Y16434290D01*
X1701900Y16417370D01*
X1708250Y16383500D01*
X1701900Y16349630D01*
X1682850Y16328470D01*
X1660620Y16315760D01*
X1581250D01*
G01X1660620D02*
X1708250Y16193000D01*
G01X1860650Y16447000D02*
X1936840D01*
G01X1898750D02*
Y16193000D01*
G01X1860650D02*
X1936840D01*
G01X2089250D02*
Y16447000D01*
X2165450D01*
X2190850Y16434290D01*
X2209900Y16404670D01*
X2216250Y16370800D01*
X2209900Y16336930D01*
X2194020Y16311530D01*
X2165450Y16298830D01*
X2089250D01*
G01X2406750Y16447000D02*
Y16193000D01*
G01X2333730Y16447000D02*
X2479770D01*
G01X2622650D02*
X2698840D01*
G01X2660750D02*
Y16193000D01*
G01X2622650D02*
X2698840D01*
G01X2914750D02*
X2889350Y16197230D01*
X2867130Y16214160D01*
X2848070Y16239560D01*
X2835370Y16269200D01*
X2829020Y16303070D01*
Y16336930D01*
X2835370Y16370800D01*
X2848070Y16400440D01*
X2867130Y16425830D01*
X2889350Y16442770D01*
X2914750Y16447000D01*
X2940150Y16442770D01*
X2962370Y16425830D01*
X2981430Y16400440D01*
X2994130Y16370800D01*
X3000480Y16336930D01*
Y16303070D01*
X2994130Y16269200D01*
X2981430Y16239560D01*
X2962370Y16214160D01*
X2940150Y16197230D01*
X2914750Y16193000D01*
G01X3095730D02*
Y16447000D01*
X3241770Y16193000D01*
Y16447000D01*
G01X1105000Y-8762500D02*
Y-7746500D01*
G01X1393920Y-8127500D02*
Y-7873500D01*
X1514580D01*
G01X1470120Y-7996260D02*
X1393920D01*
G01X1641570Y-8093640D02*
X1666980Y-8114800D01*
X1695550Y-8127500D01*
X1720950D01*
X1746350Y-8114800D01*
X1765400Y-8093640D01*
X1774930Y-8064000D01*
X1768580Y-8034370D01*
X1752700Y-8008970D01*
X1724120Y-7992030D01*
X1686030Y-7983570D01*
X1663800Y-7966640D01*
X1654270Y-7937000D01*
X1660630Y-7907370D01*
X1676500Y-7886210D01*
X1698720Y-7873500D01*
X1720950D01*
X1743180Y-7881960D01*
X1762230Y-7903130D01*
G01X2032100Y-7894670D02*
X2013050Y-7881960D01*
X1990830Y-7873500D01*
X1965430D01*
X1936850Y-7886210D01*
X1914630Y-7907370D01*
X1898750Y-7932770D01*
X1886050Y-7975100D01*
X1882870Y-8013200D01*
X1889230Y-8051300D01*
X1898750Y-8076700D01*
X1917800Y-8102110D01*
X1940030Y-8119040D01*
X1962250Y-8127500D01*
X1984470D01*
X2006700Y-8119040D01*
X2025750Y-8106340D01*
X2041630Y-8089410D01*
G01X2133700Y-8127500D02*
Y-7873500D01*
X2216250Y-8085170D01*
X2298800Y-7873500D01*
Y-8127500D01*
G01X2651230D02*
Y-7873500D01*
X2797270Y-8127500D01*
Y-7873500D01*
G01X2978250Y-8127500D02*
X2952850Y-8123270D01*
X2930630Y-8106340D01*
X2911570Y-8080940D01*
X2898870Y-8051300D01*
X2892520Y-8017430D01*
Y-7983570D01*
X2898870Y-7949700D01*
X2911570Y-7920060D01*
X2930630Y-7894670D01*
X2952850Y-7877730D01*
X2978250Y-7873500D01*
X3003650Y-7877730D01*
X3025870Y-7894670D01*
X3044930Y-7920060D01*
X3057630Y-7949700D01*
X3063980Y-7983570D01*
Y-8017430D01*
X3057630Y-8051300D01*
X3044930Y-8080940D01*
X3025870Y-8106340D01*
X3003650Y-8123270D01*
X2978250Y-8127500D01*
G01X1778100Y-5481670D02*
X1759050Y-5468960D01*
X1736830Y-5460500D01*
X1711430D01*
X1682850Y-5473210D01*
X1660630Y-5494370D01*
X1644750Y-5519770D01*
X1632050Y-5562100D01*
X1628870Y-5600200D01*
X1635230Y-5638300D01*
X1644750Y-5663700D01*
X1663800Y-5689110D01*
X1686030Y-5706040D01*
X1708250Y-5714500D01*
X1730470D01*
X1752700Y-5706040D01*
X1771750Y-5693340D01*
X1787630Y-5676410D01*
G01X1962250Y-5714500D02*
X1936850Y-5710270D01*
X1914630Y-5693340D01*
X1895570Y-5667940D01*
X1882870Y-5638300D01*
X1876520Y-5604430D01*
Y-5570570D01*
X1882870Y-5536700D01*
X1895570Y-5507060D01*
X1914630Y-5481670D01*
X1936850Y-5464730D01*
X1962250Y-5460500D01*
X1987650Y-5464730D01*
X2009870Y-5481670D01*
X2028930Y-5507060D01*
X2041630Y-5536700D01*
X2047980Y-5570570D01*
Y-5604430D01*
X2041630Y-5638300D01*
X2028930Y-5667940D01*
X2009870Y-5693340D01*
X1987650Y-5710270D01*
X1962250Y-5714500D01*
G01X2133700D02*
Y-5460500D01*
X2216250Y-5672170D01*
X2298800Y-5460500D01*
Y-5714500D01*
G01X2406750D02*
Y-5460500D01*
X2482950D01*
X2508350Y-5473210D01*
X2527400Y-5502830D01*
X2533750Y-5536700D01*
X2527400Y-5570570D01*
X2511520Y-5595970D01*
X2482950Y-5608670D01*
X2406750D01*
G01X2644870Y-5714500D02*
X2724250Y-5460500D01*
X2803630Y-5714500D01*
G01X2775050Y-5625600D02*
X2673450D01*
G01X2905230Y-5714500D02*
Y-5460500D01*
X3051270Y-5714500D01*
Y-5460500D01*
G01X3232250Y-5714500D02*
Y-5600200D01*
X3168750Y-5460500D01*
G01X3295750D02*
X3232250Y-5600200D01*
G01X3667230Y-5714500D02*
Y-5460500D01*
X3813270Y-5714500D01*
Y-5460500D01*
G01X3914870Y-5714500D02*
X3994250Y-5460500D01*
X4073630Y-5714500D01*
G01X4045050Y-5625600D02*
X3943450D01*
G01X4165700Y-5714500D02*
Y-5460500D01*
X4248250Y-5672170D01*
X4330800Y-5460500D01*
Y-5714500D01*
G01X4565750D02*
X4438750D01*
Y-5460500D01*
X4565750D01*
G01X4514950Y-5583260D02*
X4438750D01*
G01X4930870Y-5714500D02*
X5010250Y-5460500D01*
X5089630Y-5714500D01*
G01X5061050Y-5625600D02*
X4959450D01*
G01X5191230Y-5714500D02*
Y-5460500D01*
X5337270Y-5714500D01*
Y-5460500D01*
G01X5448400Y-5714500D02*
Y-5460500D01*
X5511900D01*
X5537300Y-5473210D01*
X5556350Y-5490130D01*
X5572230Y-5515530D01*
X5584930Y-5545170D01*
X5588100Y-5587500D01*
X5584930Y-5629840D01*
X5572230Y-5659470D01*
X5556350Y-5684870D01*
X5537300Y-5701800D01*
X5511900Y-5714500D01*
X5448400D01*
G01X5946870D02*
X6026250Y-5460500D01*
X6105630Y-5714500D01*
G01X6077050Y-5625600D02*
X5975450D01*
G01X6210400Y-5714500D02*
Y-5460500D01*
X6273900D01*
X6299300Y-5473210D01*
X6318350Y-5490130D01*
X6334230Y-5515530D01*
X6346930Y-5545170D01*
X6350100Y-5587500D01*
X6346930Y-5629840D01*
X6334230Y-5659470D01*
X6318350Y-5684870D01*
X6299300Y-5701800D01*
X6273900Y-5714500D01*
X6210400D01*
G01X6464400D02*
Y-5460500D01*
X6527900D01*
X6553300Y-5473210D01*
X6572350Y-5490130D01*
X6588230Y-5515530D01*
X6600930Y-5545170D01*
X6604100Y-5587500D01*
X6600930Y-5629840D01*
X6588230Y-5659470D01*
X6572350Y-5684870D01*
X6553300Y-5701800D01*
X6527900Y-5714500D01*
X6464400D01*
G01X6724750D02*
Y-5460500D01*
X6804120D01*
X6829520Y-5473210D01*
X6845400Y-5490130D01*
X6851750Y-5524000D01*
X6845400Y-5557870D01*
X6826350Y-5579030D01*
X6804120Y-5591740D01*
X6724750D01*
G01X6804120D02*
X6851750Y-5714500D01*
G01X7105750D02*
X6978750D01*
Y-5460500D01*
X7105750D01*
G01X7054950Y-5583260D02*
X6978750D01*
G01X7229570Y-5680640D02*
X7254980Y-5701800D01*
X7283550Y-5714500D01*
X7308950D01*
X7334350Y-5701800D01*
X7353400Y-5680640D01*
X7362930Y-5651000D01*
X7356580Y-5621370D01*
X7340700Y-5595970D01*
X7312120Y-5579030D01*
X7274030Y-5570570D01*
X7251800Y-5553640D01*
X7242270Y-5524000D01*
X7248630Y-5494370D01*
X7264500Y-5473210D01*
X7286720Y-5460500D01*
X7308950D01*
X7331180Y-5468960D01*
X7350230Y-5490130D01*
G01X7483570Y-5680640D02*
X7508980Y-5701800D01*
X7537550Y-5714500D01*
X7562950D01*
X7588350Y-5701800D01*
X7607400Y-5680640D01*
X7616930Y-5651000D01*
X7610580Y-5621370D01*
X7594700Y-5595970D01*
X7566120Y-5579030D01*
X7528030Y-5570570D01*
X7505800Y-5553640D01*
X7496270Y-5524000D01*
X7502630Y-5494370D01*
X7518500Y-5473210D01*
X7540720Y-5460500D01*
X7562950D01*
X7585180Y-5468960D01*
X7604230Y-5490130D01*
G01X2121000Y-8762500D02*
Y-9524500D01*
G01X3232250Y16955000D02*
Y17209000D01*
X3311620D01*
X3337020Y17196290D01*
X3352900Y17179370D01*
X3359250Y17145500D01*
X3352900Y17111630D01*
X3333850Y17090470D01*
X3311620Y17077760D01*
X3232250D01*
G01X3311620D02*
X3359250Y16955000D01*
G01X3613250D02*
X3486250D01*
Y17209000D01*
X3613250D01*
G01X3562450Y17086240D02*
X3486250D01*
G01X3724370Y17209000D02*
X3803750Y16955000D01*
X3883130Y17209000D01*
G01X4019650D02*
X4095840D01*
G01X4057750D02*
Y16955000D01*
G01X4019650D02*
X4095840D01*
G01X4245070Y16988860D02*
X4270480Y16967700D01*
X4299050Y16955000D01*
X4324450D01*
X4349850Y16967700D01*
X4368900Y16988860D01*
X4378430Y17018500D01*
X4372080Y17048130D01*
X4356200Y17073530D01*
X4327620Y17090470D01*
X4289530Y17098930D01*
X4267300Y17115860D01*
X4257770Y17145500D01*
X4264130Y17175130D01*
X4280000Y17196290D01*
X4302220Y17209000D01*
X4324450D01*
X4346680Y17200540D01*
X4365730Y17179370D01*
G01X4527650Y17209000D02*
X4603840D01*
G01X4565750D02*
Y16955000D01*
G01X4527650D02*
X4603840D01*
G01X4819750D02*
X4794350Y16959230D01*
X4772130Y16976160D01*
X4753070Y17001560D01*
X4740370Y17031200D01*
X4734020Y17065070D01*
Y17098930D01*
X4740370Y17132800D01*
X4753070Y17162440D01*
X4772130Y17187830D01*
X4794350Y17204770D01*
X4819750Y17209000D01*
X4845150Y17204770D01*
X4867370Y17187830D01*
X4886430Y17162440D01*
X4899130Y17132800D01*
X4905480Y17098930D01*
Y17065070D01*
X4899130Y17031200D01*
X4886430Y17001560D01*
X4867370Y16976160D01*
X4845150Y16959230D01*
X4819750Y16955000D01*
G01X5000730D02*
Y17209000D01*
X5146770Y16955000D01*
Y17209000D01*
G01X5261070Y16988860D02*
X5286480Y16967700D01*
X5315050Y16955000D01*
X5340450D01*
X5365850Y16967700D01*
X5384900Y16988860D01*
X5394430Y17018500D01*
X5388080Y17048130D01*
X5372200Y17073530D01*
X5343620Y17090470D01*
X5305530Y17098930D01*
X5283300Y17115860D01*
X5273770Y17145500D01*
X5280130Y17175130D01*
X5296000Y17196290D01*
X5318220Y17209000D01*
X5340450D01*
X5362680Y17200540D01*
X5381730Y17179370D01*
G01X4153000Y-8762500D02*
Y-7746500D01*
G01X4432400Y-8127500D02*
Y-7873500D01*
X4495900D01*
X4521300Y-7886210D01*
X4540350Y-7903130D01*
X4556230Y-7928530D01*
X4568930Y-7958170D01*
X4572100Y-8000500D01*
X4568930Y-8042840D01*
X4556230Y-8072470D01*
X4540350Y-8097870D01*
X4521300Y-8114800D01*
X4495900Y-8127500D01*
X4432400D01*
G01X4661000Y-7873500D02*
X4705450Y-8127500D01*
X4756250Y-7873500D01*
X4807050Y-8127500D01*
X4851500Y-7873500D01*
G01X5029300Y-8000500D02*
X5092800D01*
Y-8076700D01*
X5073750Y-8102110D01*
X5051520Y-8119040D01*
X5019780Y-8127500D01*
X4988030Y-8119040D01*
X4965800Y-8102110D01*
X4946750Y-8076700D01*
X4934050Y-8047070D01*
X4927700Y-8013200D01*
Y-7983570D01*
X4934050Y-7958170D01*
X4946750Y-7928530D01*
X4965800Y-7903130D01*
X4984850Y-7886210D01*
X5010250Y-7873500D01*
X5032470D01*
X5057870Y-7881960D01*
X5076930Y-7898900D01*
G01X5445230Y-8127500D02*
Y-7873500D01*
X5591270Y-8127500D01*
Y-7873500D01*
G01X5772250Y-8127500D02*
X5746850Y-8123270D01*
X5724630Y-8106340D01*
X5705570Y-8080940D01*
X5692870Y-8051300D01*
X5686520Y-8017430D01*
Y-7983570D01*
X5692870Y-7949700D01*
X5705570Y-7920060D01*
X5724630Y-7894670D01*
X5746850Y-7877730D01*
X5772250Y-7873500D01*
X5797650Y-7877730D01*
X5819870Y-7894670D01*
X5838930Y-7920060D01*
X5851630Y-7949700D01*
X5857980Y-7983570D01*
Y-8017430D01*
X5851630Y-8051300D01*
X5838930Y-8080940D01*
X5819870Y-8106340D01*
X5797650Y-8123270D01*
X5772250Y-8127500D01*
G01X6185000Y-9524500D02*
Y-8762500D01*
X10503000D01*
G01X5613500Y15177000D02*
Y14415000D01*
G01Y14923000D02*
Y15939000D01*
G01D02*
Y16701000D01*
G01X6467570Y-9109640D02*
X6492980Y-9130800D01*
X6521550Y-9143500D01*
X6546950D01*
X6572350Y-9130800D01*
X6591400Y-9109640D01*
X6600930Y-9080000D01*
X6594580Y-9050370D01*
X6578700Y-9024970D01*
X6550120Y-9008030D01*
X6512030Y-8999570D01*
X6489800Y-8982640D01*
X6480270Y-8953000D01*
X6486630Y-8923370D01*
X6502500Y-8902210D01*
X6524720Y-8889500D01*
X6546950D01*
X6569180Y-8897960D01*
X6588230Y-8919130D01*
G01X6721570Y-9143500D02*
Y-8889500D01*
G01X6854930D02*
Y-9143500D01*
G01Y-9016500D02*
X6721570D01*
G01X7105750Y-9143500D02*
X6978750D01*
Y-8889500D01*
X7105750D01*
G01X7054950Y-9012260D02*
X6978750D01*
G01X7359750Y-9143500D02*
X7232750D01*
Y-8889500D01*
X7359750D01*
G01X7308950Y-9012260D02*
X7232750D01*
G01X7550250Y-8889500D02*
Y-9143500D01*
G01X7477230Y-8889500D02*
X7623270D01*
G01X6273900Y16193000D02*
Y16447000D01*
X6337400D01*
X6362800Y16434290D01*
X6381850Y16417370D01*
X6397730Y16391970D01*
X6410430Y16362330D01*
X6413600Y16320000D01*
X6410430Y16277660D01*
X6397730Y16248030D01*
X6381850Y16222630D01*
X6362800Y16205700D01*
X6337400Y16193000D01*
X6273900D01*
G01X6518370D02*
X6597750Y16447000D01*
X6677130Y16193000D01*
G01X6648550Y16281900D02*
X6546950D01*
G01X6851750Y16447000D02*
Y16193000D01*
G01X6778730Y16447000D02*
X6924770D01*
G01X7169250Y16193000D02*
X7042250D01*
Y16447000D01*
X7169250D01*
G01X7118450Y16324240D02*
X7042250D01*
G01X7899500Y15177000D02*
Y14415000D01*
G01Y15177000D02*
Y15939000D01*
G01X8169370Y16193000D02*
X8248750Y16447000D01*
X8328130Y16193000D01*
G01X8299550Y16281900D02*
X8197950D01*
G01X8439250Y16193000D02*
Y16447000D01*
X8515450D01*
X8540850Y16434290D01*
X8559900Y16404670D01*
X8566250Y16370800D01*
X8559900Y16336930D01*
X8544020Y16311530D01*
X8515450Y16298830D01*
X8439250D01*
G01X8693250Y16193000D02*
Y16447000D01*
X8769450D01*
X8794850Y16434290D01*
X8813900Y16404670D01*
X8820250Y16370800D01*
X8813900Y16336930D01*
X8798020Y16311530D01*
X8769450Y16298830D01*
X8693250D01*
G01X8947250Y16193000D02*
Y16447000D01*
X9026620D01*
X9052020Y16434290D01*
X9067900Y16417370D01*
X9074250Y16383500D01*
X9067900Y16349630D01*
X9048850Y16328470D01*
X9026620Y16315760D01*
X8947250D01*
G01X9026620D02*
X9074250Y16193000D01*
G01X9264750D02*
X9239350Y16197230D01*
X9217130Y16214160D01*
X9198070Y16239560D01*
X9185370Y16269200D01*
X9179020Y16303070D01*
Y16336930D01*
X9185370Y16370800D01*
X9198070Y16400440D01*
X9217130Y16425830D01*
X9239350Y16442770D01*
X9264750Y16447000D01*
X9290150Y16442770D01*
X9312370Y16425830D01*
X9331430Y16400440D01*
X9344130Y16370800D01*
X9350480Y16336930D01*
Y16303070D01*
X9344130Y16269200D01*
X9331430Y16239560D01*
X9312370Y16214160D01*
X9290150Y16197230D01*
X9264750Y16193000D01*
G01X9439370Y16447000D02*
X9518750Y16193000D01*
X9598130Y16447000D01*
G01X9836250Y16193000D02*
X9709250D01*
Y16447000D01*
X9836250D01*
G01X9785450Y16324240D02*
X9709250D01*
G01X9956900Y16193000D02*
Y16447000D01*
X10020400D01*
X10045800Y16434290D01*
X10064850Y16417370D01*
X10080730Y16391970D01*
X10093430Y16362330D01*
X10096600Y16320000D01*
X10093430Y16277660D01*
X10080730Y16248030D01*
X10064850Y16222630D01*
X10045800Y16205700D01*
X10020400Y16193000D01*
X9956900D01*
G01X7899500Y15939000D02*
Y16701000D01*
G01X10439500Y17336000D02*
Y14288000D01*
G54D12*
G01X-2032000Y-1143000D02*
Y-889000D01*
X2032000D01*
Y-1143000D01*
X-2032000D01*
G01Y1143000D02*
Y889000D01*
X1016000D01*
Y1143000D01*
X-2032000D01*
G01X-1970000Y1838500D02*
G03I-10000J0D01*
G01Y2780000D02*
G03I-10000J0D01*
G01X1789000Y3321000D02*
X-1789000D01*
Y3829000D01*
X1789000D01*
Y3321000D01*
G01X1930000Y1838500D02*
G03I-10000J0D01*
G01Y2780000D02*
G03I-10000J0D01*
G54D13*
G01X-2150000Y2288000D02*
Y2332000D01*
G01X-1910000Y1995100D02*
G02Y1681900I250597J-156600D01*
G01X-2010000Y2288000D02*
Y2332000D01*
G01X-1910000Y1995100D02*
Y1681900D01*
G01Y2936600D02*
G02Y2623400I250597J-156600D01*
G01Y2936600D02*
Y2623400D01*
G01X-1098000Y1540000D02*
X-1142000D01*
G01X-1098000Y1400000D02*
X-1142000D01*
G01X-712000Y1876500D02*
Y1832500D01*
G01Y2718500D02*
Y2674500D01*
G01X-572000Y1876500D02*
Y1832500D01*
G01X-180000D02*
Y1876500D01*
G01X-320000Y1832500D02*
Y1876500D01*
G01X150000Y2674500D02*
Y2718500D01*
G01X-572000D02*
Y2674500D01*
G01X-180000D02*
Y2718500D01*
G01X-320000Y2674500D02*
Y2718500D01*
G01X542000D02*
Y2674500D01*
G01X682000Y2718500D02*
Y2674500D01*
G01X290000D02*
Y2718500D01*
G01X1850000Y1681900D02*
G02Y1995100I-250597J156600D01*
G01X1270000Y2398000D02*
Y2442000D01*
G01X1130000Y2398000D02*
Y2442000D01*
G01X1850000Y2623400D02*
G02Y2936600I-250597J156600D01*
G01X1952000Y2390000D02*
X1908000D01*
G01X1952000Y2250000D02*
X1908000D01*
G01X1850000Y1681900D02*
Y1995100D01*
G01Y2623400D02*
Y2936600D01*
M02*
